<?xml version="1.0" standalone="no"?>
<!DOCTYPE svg PUBLIC "-//W3C//DTD SVG 1.1//EN" "http://www.w3.org/Graphics/SVG/1.1/DTD/svg11.dtd" >
<svg>
<metadata>
Created by FontForge 20090622 at Wed Mar 30 14:59:40 2016
 By deploy user
&#194;&#169; 1990, 1991, 1998, 2002 Adobe Systems Incorporated. All rights reserved. &#194;&#169; 1989, 1990, 1998, 2002 The Monotype Corporation PLC. All rights reserved.
</metadata>
<defs>
<font id="GillSansStd-Bold" horiz-adv-x="333" >
  <font-face 
    font-family="Gill Sans Std"
    font-weight="700"
    font-stretch="normal"
    units-per-em="1000"
    panose-1="2 11 8 2 2 1 4 2 2 3"
    ascent="682"
    descent="-318"
    x-height="461"
    cap-height="682"
    bbox="-177 -250 1167 929"
    underline-thickness="50"
    underline-position="-50"
    unicode-range="U+0020-U+FB02"
  />
<missing-glyph horiz-adv-x="500" 
d="M0 0v700h500v-700h-500zM250 395l170 255h-340zM280 350l170 -255v510zM80 50h340l-170 255zM50 605v-510l170 255z" />
    <glyph glyph-name="f_i" unicode="fi" horiz-adv-x="594" 
d="M315 571q-53 0 -71 -24.5t-18 -85.5h93v-99h-93v-362h-145v362h-61v99h61q0 230 205 230q35 0 65 -9v-114q-21 3 -36 3zM460 691q32 0 55 -23t23 -55t-23 -55.5t-55 -23.5t-55.5 23.5t-23.5 55.5t23.5 55t55.5 23zM532 461v-461h-145v461h145z" />
    <glyph glyph-name="f_l" unicode="fl" horiz-adv-x="594" 
d="M532 682v-682h-145v682h145zM319 461v-99h-93v-362h-145v362h-60v99h60q0 112 48.5 171t156.5 59q35 0 65 -9v-114q-21 3 -36 3q-53 0 -71 -24.5t-18 -85.5h93z" />
    <glyph glyph-name=".notdef" horiz-adv-x="500" 
d="M0 0v700h500v-700h-500zM250 395l170 255h-340zM280 350l170 -255v510zM80 50h340l-170 255zM50 605v-510l170 255z" />
    <glyph glyph-name=".null" horiz-adv-x="0" 
 />
    <glyph glyph-name="nonmarkingreturn" 
 />
    <glyph glyph-name="space" unicode=" " horiz-adv-x="278" 
 />
    <glyph glyph-name="exclam" unicode="!" horiz-adv-x="271" 
d="M136 206q-16 0 -22 7.5t-13 34.5q-49 205 -49 335q0 52 22 80t62 28t61.5 -28t21.5 -80q0 -56 -19.5 -179t-30.5 -162q-7 -24 -12.5 -30t-20.5 -6zM136 165q36 0 61.5 -25.5t25.5 -61.5t-25.5 -61.5t-61.5 -25.5t-61.5 25.5t-25.5 61.5t25.5 61.5t61.5 25.5z" />
    <glyph glyph-name="quotedbl" unicode="&#x22;" horiz-adv-x="479" 
d="M426 595l-24 -134h-87l-24 134v121h135v-121zM53 595v121h135v-121l-24 -134h-87z" />
    <glyph glyph-name="numbersign" unicode="#" horiz-adv-x="584" 
d="M-6 501h145l38 181h113l-38 -181h154l38 181h111l-38 -181h74v-109h-96l-27 -131h123v-109h-147l-38 -181h-111l37 181h-153l-37 -181h-114l38 181h-72v109h95l27 131h-122v109zM229 392l-27 -131h153l27 131h-153z" />
    <glyph glyph-name="dollar" unicode="$" horiz-adv-x="542" 
d="M467 604v-123q-72 53 -156 66v-162q92 -28 141.5 -83.5t49.5 -119.5q0 -74 -50.5 -124.5t-140.5 -66.5v-110h-84v110q-36 4 -89.5 25.5t-85.5 43.5v118q91 -69 175 -84v192q-95 22 -138.5 72.5t-43.5 118.5q0 70 50.5 119.5t131.5 58.5v36h84v-36q72 -3 156 -51zM227 415
v132q-31 -7 -49 -24t-18 -40q0 -47 67 -68zM311 260v-164q35 7 56 28.5t21 50.5q0 58 -77 85z" />
    <glyph glyph-name="percent" unicode="%" horiz-adv-x="719" 
d="M256 530q0 31 -21 53t-50 22q-30 0 -50.5 -21.5t-20.5 -53.5q0 -30 21 -52.5t50 -22.5q30 0 50.5 21.5t20.5 53.5zM346 530q0 -66 -47 -113.5t-114 -47.5t-114 47.5t-47 113.5q0 67 47 114t114 47t114 -47t47 -114zM638 691l-477 -699h-83l480 699h80zM694 152
q0 -66 -47 -113.5t-114 -47.5t-114 47.5t-47 113.5q0 67 47 114t114 47t114 -47t47 -114zM604 152q0 31 -21 53t-50 22q-30 0 -50.5 -21.5t-20.5 -53.5q0 -30 21 -52.5t50 -22.5q30 0 50.5 21.5t20.5 53.5z" />
    <glyph glyph-name="ampersand" unicode="&#x26;" horiz-adv-x="750" 
d="M580 354h146q-58 -134 -137 -204l137 -150h-207l-50 54q-100 -63 -214 -63q-93 0 -154.5 51.5t-61.5 128.5q0 114 153 193q-33 46 -47.5 79t-14.5 72q0 76 59 126t150 50q87 0 142 -45.5t55 -116.5q0 -100 -127 -175l93 -107q44 44 78 107zM335 435q68 40 68 86
q0 25 -17.5 41t-45.5 16t-45.5 -14.5t-17.5 -37.5q0 -40 58 -91zM390 142l-121 134q-70 -45 -70 -92q0 -33 25.5 -56.5t60.5 -23.5q50 0 105 38z" />
    <glyph glyph-name="quotesingle" unicode="'" horiz-adv-x="240" 
d="M188 595l-24 -134h-87l-24 134v121h135v-121z" />
    <glyph glyph-name="parenleft" unicode="(" horiz-adv-x="385" 
d="M201 231q0 -127 40.5 -239t137.5 -222h-103q-105 83 -168 207t-63 254q0 129 63.5 254t167.5 206h103q-97 -107 -137.5 -219.5t-40.5 -240.5z" />
    <glyph glyph-name="parenright" unicode=")" horiz-adv-x="385" 
d="M184 231q0 128 -40.5 240.5t-137.5 219.5h103q104 -81 167.5 -206t63.5 -254t-63 -252.5t-168 -208.5h-103q97 110 137.5 222t40.5 239z" />
    <glyph glyph-name="asterisk" unicode="*" horiz-adv-x="469" 
d="M292 301q11 -37 -26 -37h-61q-20 0 -27 8t-1 29l44 142l-12 11l-99 -102q-20 -20 -29.5 -22t-20.5 16l-28 53q-19 36 15 44l152 33v2l-152 34q-33 8 -17 40l30 57q7 13 11.5 16t13.5 -1.5t25 -20.5l99 -102l12 11l-44 142q-12 37 28 37h58q22 0 28.5 -8.5t0.5 -28.5
l-44 -142l12 -11l99 102q22 22 30 23t20 -20l25 -45q22 -40 -12 -49l-152 -34v-2l152 -33q36 -8 14 -46l-26 -47q-8 -14 -13.5 -18.5t-12 -1.5t-17.5 14l-107 110l-12 -11z" />
    <glyph glyph-name="plus" unicode="+" horiz-adv-x="584" 
d="M42 289v128h186v186h128v-186h186v-128h-186v-186h-128v186h-186z" />
    <glyph glyph-name="comma" unicode="," horiz-adv-x="271" 
d="M50 -169v31q22 20 35.5 57t9.5 72q-51 20 -51 73q0 34 23.5 56.5t58.5 22.5q44 0 72 -32t28 -82q0 -75 -51.5 -133t-124.5 -65z" />
    <glyph glyph-name="hyphen" unicode="-" 
d="M297 298v-133h-261v133h261z" />
    <glyph glyph-name="period" unicode="." horiz-adv-x="271" 
d="M135 165q36 0 61.5 -25.5t25.5 -61.5t-25.5 -61.5t-61.5 -25.5t-61.5 25.5t-25.5 61.5t25.5 61.5t61.5 25.5z" />
    <glyph glyph-name="slash" unicode="/" horiz-adv-x="281" 
d="M0 -9l169 700h103l-171 -700h-101z" />
    <glyph glyph-name="zero" unicode="0" horiz-adv-x="552" 
d="M507 344q0 -159 -56.5 -256t-171.5 -97t-175 95t-60 255q0 169 63.5 259.5t169.5 90.5q111 0 170.5 -95.5t59.5 -251.5zM355 355q0 107 -17 157.5t-62 50.5q-26 0 -42.5 -16t-24.5 -49.5t-10.5 -70t-2.5 -93.5q0 -109 18 -162t63 -53q47 0 62.5 58t15.5 178z" />
    <glyph glyph-name="one" unicode="1" horiz-adv-x="552" 
d="M349 682v-682h-151v682h151z" />
    <glyph glyph-name="two" unicode="2" horiz-adv-x="552" 
d="M505 139v-139h-451v19q90 110 190 263q74 112 74 188q0 40 -26.5 69t-64.5 29q-76 0 -164 -85v143q102 65 191 65q101 0 158.5 -51.5t57.5 -142.5q0 -123 -185 -358h220z" />
    <glyph glyph-name="three" unicode="3" horiz-adv-x="552" 
d="M203 294v120q44 0 69 24.5t25 56.5q0 34 -27.5 56.5t-69.5 22.5q-56 0 -125 -33v120q67 30 156 30q97 0 157.5 -46.5t60.5 -120.5q0 -103 -101 -158q120 -46 120 -175q0 -91 -66 -145.5t-177 -54.5q-92 0 -167 39v132q78 -54 144 -54q47 0 77 25t30 65q0 41 -29.5 68
t-76.5 28z" />
    <glyph glyph-name="four" unicode="4" horiz-adv-x="552" 
d="M458 691v-414h46v-109h-46v-168h-151v168h-266v109l321 414h96zM305 463l-144 -186h146v186h-2z" />
    <glyph glyph-name="five" unicode="5" horiz-adv-x="552" 
d="M453 682v-137h-218v-127q111 8 176 -54.5t65 -155.5q0 -99 -67 -158t-180 -59q-43 0 -91.5 10.5t-73.5 26.5v124q79 -44 145 -44q47 0 77.5 27t30.5 68q0 59 -59 84t-159 6v389h354z" />
    <glyph glyph-name="six" unicode="6" horiz-adv-x="552" 
d="M423 691l-158 -258q85 23 158 -35t73 -174q0 -101 -64.5 -167t-161.5 -66q-101 0 -163.5 67t-62.5 175q0 117 93 267l118 191h168zM350 220q0 46 -21.5 74t-56.5 28t-55.5 -28t-20.5 -76q0 -47 20.5 -73t56.5 -26q35 0 56 27.5t21 73.5z" />
    <glyph glyph-name="seven" unicode="7" horiz-adv-x="552" 
d="M133 43l183 503h-252v136h451v-8l-246 -683z" />
    <glyph glyph-name="eight" unicode="8" horiz-adv-x="552" 
d="M486 505q0 -95 -83 -145q102 -52 102 -165q0 -92 -62.5 -148t-167.5 -56q-101 0 -164 56.5t-63 146.5q0 118 103 166q-45 29 -64.5 63t-19.5 83q0 83 57 134t150 51q102 0 157 -56t55 -130zM340 500q0 91 -64 91q-29 0 -46 -25t-17 -68q0 -44 17.5 -70t47.5 -26
q29 0 45.5 26t16.5 72zM353 196q0 50 -20.5 79.5t-55.5 29.5t-56 -28.5t-21 -76.5q0 -49 21.5 -79t56.5 -30q34 0 54.5 28.5t20.5 76.5z" />
    <glyph glyph-name="nine" unicode="9" horiz-adv-x="552" 
d="M125 -9l157 256q-90 -25 -161 40t-71 168q0 101 65 168.5t162 67.5t161 -67.5t64 -170.5q0 -121 -90 -267l-120 -195h-167zM350 459q0 48 -20.5 76t-55.5 28q-34 0 -56 -29t-22 -74q0 -46 21.5 -74.5t56.5 -28.5q33 0 54.5 29t21.5 73z" />
    <glyph glyph-name="colon" unicode=":" horiz-adv-x="271" 
d="M135 461q36 0 61.5 -25.5t25.5 -61.5t-25.5 -61.5t-61.5 -25.5t-61.5 25.5t-25.5 61.5t25.5 61.5t61.5 25.5zM135 165q36 0 61.5 -25.5t25.5 -61.5t-25.5 -61.5t-61.5 -25.5t-61.5 25.5t-25.5 61.5t25.5 61.5t61.5 25.5z" />
    <glyph glyph-name="semicolon" unicode=";" horiz-adv-x="271" 
d="M50 -169v31q22 20 35.5 57t9.5 72q-51 20 -51 73q0 34 23.5 56.5t58.5 22.5q44 0 72 -32t28 -82q0 -75 -51.5 -133t-124.5 -65zM135 461q36 0 61.5 -25.5t25.5 -61.5t-25.5 -61.5t-61.5 -25.5t-61.5 25.5t-25.5 61.5t25.5 61.5t61.5 25.5z" />
    <glyph glyph-name="less" unicode="&#x3c;" horiz-adv-x="584" 
d="M47 295v120l491 213v-137l-343 -136l343 -136v-137z" />
    <glyph glyph-name="equal" unicode="=" horiz-adv-x="584" 
d="M42 180v128h500v-128h-500zM42 398v128h500v-128h-500z" />
    <glyph glyph-name="greater" unicode="&#x3e;" horiz-adv-x="584" 
d="M537 295l-491 -213v137l343 136l-343 136v137l491 -213v-120z" />
    <glyph glyph-name="question" unicode="?" horiz-adv-x="375" 
d="M25 548l25 123q59 20 116 20q77 0 121 -38t44 -102q0 -42 -15 -79.5t-36.5 -65l-42.5 -53.5t-36 -56.5t-15 -63.5v-12q0 -11 -6 -13.5t-25 -2.5q-18 0 -26 8q-7 7 -17.5 41.5t-10.5 62.5q0 42 19.5 82.5t39 74.5t19.5 58t-15.5 37.5t-43.5 13.5q-25 0 -42.5 -7t-43.5 -28
h-9zM158 165q36 0 61.5 -25.5t25.5 -61.5t-25.5 -61.5t-61.5 -25.5t-61.5 25.5t-25.5 61.5t25.5 61.5t61.5 25.5z" />
    <glyph glyph-name="at" unicode="@" horiz-adv-x="979" 
d="M868 9h104q-53 -106 -163.5 -162.5t-265.5 -56.5q-72 0 -142 14.5t-138 48t-119 83t-82.5 125.5t-31.5 169q0 67 16 134t54 133.5t94 117t143 82t194 31.5q185 0 300 -103.5t115 -269.5q0 -89 -39.5 -169.5t-115 -133t-168.5 -52.5q-75 0 -89 56q-56 -56 -132 -56
q-83 0 -135.5 57t-52.5 148q0 54 17.5 109.5t49 104t83 79.5t112.5 31q90 0 131 -66l12 54h129l-78 -370q-9 -47 16 -47q47 0 109.5 78.5t62.5 178.5q0 50 -17.5 97t-54 90t-104.5 69.5t-159 26.5q-86 0 -156.5 -25.5t-116 -67t-76 -96t-43.5 -109.5t-13 -111
q0 -88 33.5 -157t91.5 -111t131 -63.5t157 -21.5q233 0 337 131zM340 203q0 -52 24 -83t64 -31t71.5 27.5t48 68t24.5 77.5t8 65q0 52 -25 83t-66 31q-69 0 -109 -75t-40 -163z" />
    <glyph glyph-name="A" unicode="A" horiz-adv-x="781" 
d="M475 682l303 -682h-183l-56 135h-305l-51 -135h-180l275 682h197zM489 254l-110 265l-100 -265h210z" />
    <glyph glyph-name="B" unicode="B" horiz-adv-x="698" 
d="M76 682h295q111 0 168.5 -52.5t57.5 -118.5q0 -42 -25 -78.5t-68 -57.5q71 -18 108 -65.5t37 -109.5q0 -33 -10.5 -64.5t-35 -64t-75 -52t-120.5 -19.5h-332v682zM246 557v-146h89q43 0 65 22t22 52q0 29 -22 50.5t-65 21.5h-89zM246 286v-161h96q70 0 98.5 19.5
t28.5 64.5q0 37 -29 57t-75 20h-119z" />
    <glyph glyph-name="C" unicode="C" horiz-adv-x="771" 
d="M712 208v-149q-72 -37 -132.5 -52.5t-135.5 -15.5q-96 0 -173.5 29.5t-125 79t-73 111t-25.5 128.5q0 144 111.5 248t298.5 104q147 0 247 -60v-152q-125 70 -235 70q-109 0 -178 -58t-69 -149q0 -92 68.5 -150.5t174.5 -58.5q61 0 110.5 16.5t136.5 58.5z" />
    <glyph glyph-name="D" unicode="D" horiz-adv-x="802" 
d="M75 682h301q179 0 278 -97t99 -245q0 -154 -100 -247t-296 -93h-282v682zM245 557v-432h111q61 0 106 19t69.5 52t35.5 69t11 76q0 95 -55 155.5t-169 60.5h-109z" />
    <glyph glyph-name="E" unicode="E" horiz-adv-x="635" 
d="M581 125v-125h-503v682h496v-125h-326v-143h311v-125h-311v-164h333z" />
    <glyph glyph-name="F" unicode="F" horiz-adv-x="604" 
d="M546 682v-125h-300v-152h300v-125h-300v-280h-170v682h470z" />
    <glyph glyph-name="G" unicode="G" horiz-adv-x="813" 
d="M727 635v-149q-131 63 -255 63q-66 0 -116.5 -19t-78.5 -51t-41.5 -68.5t-13.5 -76.5q0 -91 65 -146t171 -55q53 0 113 24v80h-99v125h269v-279q-38 -39 -121 -65.5t-166 -26.5q-178 0 -292.5 98t-114.5 251q0 156 114.5 253.5t296.5 97.5q154 0 269 -56z" />
    <glyph glyph-name="H" unicode="H" horiz-adv-x="833" 
d="M757 682v-682h-170v276h-340v-276h-170v682h170v-274h340v274h170z" />
    <glyph glyph-name="I" unicode="I" 
d="M252 682v-682h-170v682h170z" />
    <glyph glyph-name="J" unicode="J" 
d="M259 682v-619q0 -136 -67 -203q-69 -69 -224 -57v134q61 -10 91 23t30 100v622h170z" />
    <glyph glyph-name="K" unicode="K" horiz-adv-x="719" 
d="M649 682l-222 -320l301 -362h-213l-270 320v-320h-170v682h170v-309h2l215 309h187z" />
    <glyph glyph-name="L" unicode="L" horiz-adv-x="615" 
d="M596 125v-125h-520v682h170v-557h350z" />
    <glyph glyph-name="M" unicode="M" horiz-adv-x="885" 
d="M443 429l219 253h148v-682h-170v426l-184 -214h-26l-184 214v-426h-170v682h148z" />
    <glyph glyph-name="N" unicode="N" horiz-adv-x="844" 
d="M767 682v-682h-143l-377 437v-437h-170v682h156l364 -417v417h170z" />
    <glyph glyph-name="O" unicode="O" horiz-adv-x="875" 
d="M828 341q0 -139 -107.5 -244.5t-282.5 -105.5q-90 0 -166 30t-124 80t-74.5 112t-26.5 128q0 63 25.5 124.5t73 112t123.5 82t169 31.5q92 0 168.5 -31.5t123.5 -82.5t72.5 -112t25.5 -124zM653 341q0 94 -59 151t-156 57t-156.5 -57t-59.5 -151t59.5 -151t156.5 -57
t156 57t59 151z" />
    <glyph glyph-name="P" unicode="P" horiz-adv-x="656" 
d="M83 682h304q56 0 100.5 -18.5t71 -48t40.5 -64.5t14 -71q0 -81 -58 -143.5t-167 -62.5h-135v-274h-170v682zM253 557v-158h79q57 0 81.5 19.5t24.5 59.5q0 44 -28 61.5t-97 17.5h-60z" />
    <glyph glyph-name="Q" unicode="Q" horiz-adv-x="875" 
d="M827 -30l11 -14l-133 -113q-184 13 -378 157q-106 19 -193 113t-87 224q0 66 27.5 129t77 113.5t125 81t163.5 30.5q92 0 168.5 -32t123 -83t72 -111.5t25.5 -121.5q0 -113 -70.5 -205.5t-183.5 -126.5q57 -33 127.5 -45t124.5 4zM222 339q0 -94 59 -151.5t157 -57.5
q94 0 155 55.5t61 153.5q0 99 -62 154.5t-154 55.5q-97 0 -156.5 -57.5t-59.5 -152.5z" />
    <glyph glyph-name="R" unicode="R" horiz-adv-x="677" 
d="M76 682h305q101 0 162 -58t61 -138q0 -113 -117 -167q21 -10 36.5 -25.5t33 -46t29.5 -57l39 -85.5l49 -105h-187q-17 34 -38.5 83.5t-35 78t-31.5 58.5t-39.5 43.5t-47.5 13.5h-49v-277h-170v682zM246 557v-155h90q40 0 66.5 19t26.5 59q0 77 -97 77h-86z" />
    <glyph glyph-name="S" unicode="S" horiz-adv-x="604" 
d="M534 638v-133q-137 61 -216 61q-46 0 -73 -15t-27 -41q0 -21 19 -37t49.5 -28.5t68 -25.5t74.5 -31t67.5 -41.5t49.5 -62t19 -86.5q0 -96 -72.5 -151.5t-189.5 -55.5q-56 0 -104 10.5t-72.5 21.5t-69.5 34v147q74 -49 125.5 -68.5t107.5 -19.5q100 0 100 63
q0 22 -19 39.5t-49.5 29.5t-68 25t-74.5 30.5t-67.5 41t-49.5 62t-19 88.5q0 89 71 142.5t189 53.5q108 0 231 -53z" />
    <glyph glyph-name="T" unicode="T" horiz-adv-x="719" 
d="M692 682v-125h-247v-557h-170v557h-247v125h664z" />
    <glyph glyph-name="U" unicode="U" horiz-adv-x="823" 
d="M582 682h170v-387q0 -159 -94 -231.5t-247 -72.5q-156 0 -248.5 75.5t-92.5 227.5v388h170v-392q0 -72 47 -114.5t122 -42.5q74 0 123.5 41.5t49.5 127.5v380z" />
    <glyph glyph-name="V" unicode="V" horiz-adv-x="719" 
d="M719 682l-315 -691h-74l-330 691h185l180 -389l171 389h183z" />
    <glyph glyph-name="W" unicode="W" horiz-adv-x="1167" 
d="M583 436l-211 -445h-73l-300 691h180l161 -377l175 377h137l175 -377l160 377h180l-299 -691h-73z" />
    <glyph glyph-name="X" unicode="X" horiz-adv-x="813" 
d="M779 682l-267 -329l296 -353h-220l-185 225l-182 -225h-217l289 353l-273 329h220l163 -201l160 201h216z" />
    <glyph glyph-name="Y" unicode="Y" horiz-adv-x="708" 
d="M269 0v319l-269 363h206l148 -214l149 214h205l-269 -363v-319h-170z" />
    <glyph glyph-name="Z" unicode="Z" horiz-adv-x="698" 
d="M666 682l-372 -557h372v-125h-662l375 557h-349v125h636z" />
    <glyph glyph-name="bracketleft" unicode="[" horiz-adv-x="438" 
d="M419 682v-109h-190v-685h190v-109h-335v903h335z" />
    <glyph glyph-name="backslash" unicode="\" horiz-adv-x="281" 
d="M279 -9h-101l-171 700h103z" />
    <glyph glyph-name="bracketright" unicode="]" horiz-adv-x="438" 
d="M19 -221v109h190v685h-190v109h335v-903h-335z" />
    <glyph glyph-name="asciicircum" unicode="^" horiz-adv-x="584" 
d="M56 292l184 390h108l179 -390h-139l-96 239l-96 -239h-140z" />
    <glyph glyph-name="underscore" unicode="_" horiz-adv-x="500" 
d="M-6 -75h512v-50h-512v50z" />
    <glyph glyph-name="grave" unicode="`" 
d="M8 676h165l74 -146h-74z" />
    <glyph glyph-name="a" unicode="a" horiz-adv-x="531" 
d="M531 114v-81q-70 -42 -136 -42q-36 0 -54.5 12t-26.5 40q-77 -52 -152 -52q-54 0 -91.5 34t-37.5 79q0 23 6 41.5t12.5 32t27 27.5t33.5 22t49.5 21.5t57 20l72.5 22.5q11 3 16 5q2 35 -16.5 56t-63.5 21q-43 0 -89 -21t-81 -56v118q91 56 200 56q195 0 195 -140v-210
q0 -32 24 -32q18 0 55 26zM307 112v111q-71 -26 -99 -45.5t-28 -51.5q0 -20 14 -34.5t33 -14.5q42 0 80 35z" />
    <glyph glyph-name="b" unicode="b" horiz-adv-x="583" 
d="M203 682v-247q60 35 119 35q100 0 162.5 -66t62.5 -172t-60 -173.5t-155 -67.5q-68 0 -129 44v-35h-145v682h145zM203 341v-214q45 -39 86 -39q51 0 81 38.5t30 107.5t-32 104t-81 35q-39 0 -84 -32z" />
    <glyph glyph-name="c" unicode="c" horiz-adv-x="500" 
d="M463 126v-104q-86 -31 -156 -31q-121 0 -194 65t-73 173q0 106 73.5 173.5t187.5 67.5q75 0 155 -30v-108q-59 31 -118 31q-65 0 -104 -36t-39 -97t38 -98.5t100 -37.5q45 0 130 32z" />
    <glyph glyph-name="d" unicode="d" horiz-adv-x="583" 
d="M524 682v-682h-145v37q-57 -46 -128 -46q-93 0 -154.5 68.5t-61.5 171.5q0 106 62.5 172.5t161.5 66.5q60 0 120 -29v241h145zM379 126v220q-38 27 -81 27q-55 0 -85.5 -38t-30.5 -107q0 -63 30 -101.5t81 -38.5q44 0 86 38z" />
    <glyph glyph-name="e" unicode="e" horiz-adv-x="552" 
d="M510 143v-91q-83 -61 -206 -61q-121 0 -194 65t-73 173q0 106 68 173.5t175 67.5q105 0 174 -71t64 -192h-331q4 -62 44 -96t108 -34q44 0 82 14.5t89 51.5zM190 283h200q-4 47 -31 74t-69 27q-43 0 -69.5 -26.5t-30.5 -74.5z" />
    <glyph glyph-name="f" unicode="f" horiz-adv-x="302" 
d="M226 461h66v-99h-66v-362h-145v362h-66v99h66v23q0 99 55.5 153t146.5 54q22 0 88 -9v-117q-46 6 -65 6q-80 0 -80 -81v-29z" />
    <glyph glyph-name="g" unicode="g" horiz-adv-x="542" 
d="M530 461v-97h-66q23 -40 23 -77q0 -59 -42 -101q-35 -35 -90 -45.5t-90.5 -15.5t-35.5 -27q0 -18 29 -25t68 -8t84.5 -13t70.5 -38q37 -37 37 -89q0 -78 -64.5 -116.5t-179.5 -38.5q-132 0 -189 39.5t-57 94.5q0 84 123 115v2q-56 16 -56 60q0 49 84 68v2
q-50 8 -89.5 45.5t-39.5 96.5q0 19 5 39.5t19.5 44t37 42t60 30.5t84.5 12h274zM185 291q0 -34 25 -58.5t59 -24.5t58.5 26t24.5 62q0 32 -23 55.5t-60 23.5q-36 0 -60 -24.5t-24 -59.5zM385 -86q0 51 -113 51q-51 0 -80.5 -14.5t-29.5 -40.5q0 -54 119 -54q47 0 75.5 17
t28.5 41z" />
    <glyph glyph-name="h" unicode="h" horiz-adv-x="583" 
d="M207 682v-289h2q61 77 146 77q70 0 119.5 -44t49.5 -132v-294h-145v263q0 50 -20 75.5t-55 25.5q-48 0 -97 -70v-294h-145v682h145z" />
    <glyph glyph-name="i" unicode="i" horiz-adv-x="271" 
d="M208 461v-461h-145v461h145zM135 691q33 0 56.5 -23.5t23.5 -56.5t-23.5 -56.5t-56.5 -23.5t-56.5 23.5t-23.5 56.5t23.5 56.5t56.5 23.5z" />
    <glyph glyph-name="j" unicode="j" horiz-adv-x="271" 
d="M211 461v-474q0 -106 -53 -158.5t-121 -58.5l-46 131q40 7 57.5 35.5t17.5 85.5v439h145zM138 691q33 0 56.5 -23.5t23.5 -56.5t-23.5 -56.5t-56.5 -23.5t-56.5 23.5t-23.5 56.5t23.5 56.5t56.5 23.5z" />
    <glyph glyph-name="k" unicode="k" horiz-adv-x="552" 
d="M208 682v-449h2l179 228h170l-180 -228l188 -233h-178l-179 227h-2v-227h-145v682h145z" />
    <glyph glyph-name="l" unicode="l" horiz-adv-x="271" 
d="M208 682v-682h-145v682h145z" />
    <glyph glyph-name="m" unicode="m" horiz-adv-x="958" 
d="M208 461v-59q36 33 77 52q39 16 83 16q118 0 166 -98q45 52 87.5 75t94.5 23q79 0 129.5 -48t50.5 -126v-296h-145v270q0 49 -22.5 76t-62.5 27q-64 0 -114 -78v-295h-145v273q0 52 -25.5 76t-62.5 24q-58 0 -111 -64v-309h-145v461h145z" />
    <glyph glyph-name="n" unicode="n" horiz-adv-x="583" 
d="M205 461v-66q65 75 150 75q66 0 117 -42.5t51 -134.5v-293h-145v281q0 47 -19.5 69.5t-52.5 22.5q-27 0 -50 -17t-51 -59v-297h-145v461h145z" />
    <glyph glyph-name="o" unicode="o" horiz-adv-x="594" 
d="M557 230q0 -53 -17.5 -95t-44.5 -68.5t-62 -44t-68.5 -24.5t-66.5 -7q-114 0 -187.5 66t-73.5 174q0 112 76 175.5t185 63.5q45 0 88.5 -13t83 -40t63.5 -75.5t24 -111.5zM402 234q0 150 -104 150q-49 0 -77.5 -38.5t-28.5 -114.5q0 -83 29.5 -118.5t76.5 -35.5
q51 0 77.5 40.5t26.5 116.5z" />
    <glyph glyph-name="p" unicode="p" horiz-adv-x="583" 
d="M202 461v-40q59 49 132 49q90 0 152 -67.5t62 -166.5q0 -111 -62 -178t-165 -67q-65 0 -119 32v-253h-145v691h145zM202 330v-212q41 -30 84 -30q53 0 84 37.5t31 102.5q0 66 -28.5 102.5t-80.5 36.5q-42 0 -90 -37z" />
    <glyph glyph-name="q" unicode="q" horiz-adv-x="583" 
d="M380 461h145v-691h-145v253q-53 -32 -119 -32q-102 0 -164 67.5t-62 177.5q0 100 61 167t153 67q73 0 131 -49v40zM380 118v212q-46 37 -90 37q-52 0 -80 -36.5t-28 -102.5q0 -65 30.5 -102.5t83.5 -37.5q43 0 84 30z" />
    <glyph glyph-name="r" unicode="r" horiz-adv-x="448" 
d="M209 461v-132h2q63 141 147 141q39 0 96 -42l-40 -128q-54 34 -86 34q-38 0 -65.5 -33.5t-53.5 -101.5v-199h-145v461h145z" />
    <glyph glyph-name="s" unicode="s" horiz-adv-x="427" 
d="M377 436v-103q-82 51 -154 51q-52 0 -52 -36q0 -16 36 -32.5t78.5 -32t78.5 -53t36 -89.5q0 -72 -49 -111t-139 -39q-49 0 -97 11.5t-68 22.5v102q92 -39 149 -39q32 0 51 9t19 25q0 18 -23.5 32t-57 26.5t-67.5 28.5t-57.5 46.5t-23.5 72.5q0 64 52.5 103t138.5 39
q81 0 149 -34z" />
    <glyph glyph-name="t" unicode="t" horiz-adv-x="406" 
d="M391 461v-99h-168v-190q0 -34 19 -54t52 -20q44 0 97 27v-105q-70 -29 -134 -29q-79 0 -129 41t-50 132v198h-66v28l193 216h18v-145h168z" />
    <glyph glyph-name="u" unicode="u" horiz-adv-x="583" 
d="M378 0v66q-65 -75 -149 -75q-73 0 -121 45t-48 130v295h145v-285q0 -46 20.5 -67t52.5 -21q33 0 60.5 22.5t38.5 56.5v294h146v-461h-145z" />
    <glyph glyph-name="v" unicode="v" horiz-adv-x="510" 
d="M215 -9l-213 470h155l98 -254l99 254h154l-212 -470h-81z" />
    <glyph glyph-name="w" unicode="w" horiz-adv-x="781" 
d="M391 242l-116 -251h-68l-208 470h148l97 -254l103 254h88l102 -254l97 254h148l-207 -470h-69z" />
    <glyph glyph-name="x" unicode="x" horiz-adv-x="552" 
d="M535 461l-182 -225l196 -236h-168l-109 143l-105 -143h-163l188 236l-188 225h169l99 -133l94 133h169z" />
    <glyph glyph-name="y" unicode="y" horiz-adv-x="510" 
d="M509 461l-309 -682h-154l135 296l-180 386h155l97 -237l104 237h152z" />
    <glyph glyph-name="z" unicode="z" horiz-adv-x="521" 
d="M42 461h450l-236 -362h236v-99h-473l237 362h-214v99z" />
    <glyph glyph-name="braceleft" unicode="{" horiz-adv-x="385" 
d="M29 314q61 1 84 37.5t23 111.5v79q0 98 45.5 140t137.5 42h44v-117h-6q-66 0 -80.5 -17t-14.5 -94q0 -99 -14.5 -149.5t-70.5 -89.5q56 -39 70.5 -89.5t14.5 -149.5q0 -77 14.5 -94t80.5 -17h6v-117h-44q-92 0 -137.5 42t-45.5 140v79q0 75 -23 111.5t-84 37.5v114z" />
    <glyph glyph-name="bar" unicode="|" horiz-adv-x="281" 
d="M86 -250v1000h109v-1000h-109z" />
    <glyph glyph-name="braceright" unicode="}" horiz-adv-x="385" 
d="M356 200q-61 -1 -84 -37.5t-23 -111.5v-79q0 -98 -45.5 -140t-137.5 -42h-44v117h6q66 0 80.5 17t14.5 94q0 99 14.5 149.5t70.5 89.5q-56 39 -70.5 89.5t-14.5 149.5q0 77 -14.5 94t-80.5 17h-6v117h44q92 0 137.5 -42t45.5 -140v-79q0 -75 23 -111.5t84 -37.5v-114z
" />
    <glyph glyph-name="asciitilde" unicode="~" horiz-adv-x="584" 
d="M16 175v131q88 72 160 72q44 0 126 -39t119 -39q60 0 146 74v-130q-29 -29 -74 -50.5t-84 -21.5q-43 0 -127.5 39.5t-113.5 39.5q-34 0 -67.5 -16.5t-84.5 -59.5z" />
    <glyph glyph-name="uni00A0" unicode="&#xa0;" horiz-adv-x="278" 
 />
    <glyph glyph-name="exclamdown" unicode="&#xa1;" horiz-adv-x="271" 
d="M135 255q16 0 22 -7.5t13 -34.5q49 -205 49 -335q0 -52 -22 -80t-62 -28t-61.5 28t-21.5 80q0 56 19.5 179t30.5 162q7 24 12.5 30t20.5 6zM135 296q-36 0 -61.5 25.5t-25.5 61.5t25.5 61.5t61.5 25.5t61.5 -25.5t25.5 -61.5t-25.5 -61.5t-61.5 -25.5z" />
    <glyph glyph-name="cent" unicode="&#xa2;" horiz-adv-x="500" 
d="M471 632l-55 -177q27 -8 39 -14v-109q-32 17 -69 28l-83 -262q76 -10 159 31v-107q-83 -31 -192 -31l-57 -180h-71l60 189q-79 26 -120 85.5t-41 141.5q0 115 84.5 185.5t222.5 54.5l52 165h71zM240 124l76 239q-55 -4 -89.5 -40.5t-34.5 -92.5q0 -67 48 -106z" />
    <glyph glyph-name="sterling" unicode="&#xa3;" horiz-adv-x="521" 
d="M336 395v-119h-97l-26 -130q16 5 31 5q32 0 78 -11t77 -11q42 0 81 17v-135q-45 -20 -89 -20q-14 0 -80 12t-108 12q-66 0 -156 -24q1 32 18.5 128t33.5 157h-45v119h77q25 84 49 139t59 90q37 37 84.5 54.5t91.5 10.5l58 -131q-76 18 -126.5 -19t-74.5 -144h64z" />
    <glyph glyph-name="currency" unicode="&#xa4;" horiz-adv-x="552" 
d="M447 87l-66 66q-45 -28 -105 -28q-58 0 -104 27l-65 -65l-85 85l65 65q-27 43 -27 105q0 54 27 105l-65 65l83 83l64 -64q60 27 107 27q58 0 105 -27l65 65l85 -85l-65 -65q27 -49 27 -104q0 -53 -28 -107l65 -65zM276 441q-41 0 -70 -29t-29 -70t29 -70.5t70 -29.5
t70.5 29.5t29.5 70.5t-29.5 70t-70.5 29z" />
    <glyph glyph-name="yen" unicode="&#xa5;" horiz-adv-x="552" 
d="M206 133h-181v109h181v58h-181v109h127l-151 307h151l122 -277h2l125 277h151l-154 -307h129v-109h-183v-58h183v-109h-183v-133h-138v133z" />
    <glyph glyph-name="brokenbar" unicode="&#xa6;" horiz-adv-x="281" 
d="M86 -175v350h109v-350h-109zM86 325v350h109v-350h-109z" />
    <glyph glyph-name="section" unicode="&#xa7;" horiz-adv-x="521" 
d="M495 206q0 -53 -20 -93t-69 -88q27 -36 36.5 -59.5t9.5 -53.5q0 -66 -51.5 -104t-142.5 -38q-83 0 -136.5 30.5t-53.5 77.5q0 28 22.5 50t51.5 22q28 0 44 -16q14 -14 19 -35t13.5 -32t36.5 -11q25 0 41 13t16 34q0 22 -21.5 46t-53 44t-69 47t-69 55t-53 68.5
t-21.5 86.5q0 98 88 185q-29 41 -38 60t-9 45q0 70 54.5 110.5t146.5 40.5t139 -31t47 -78q0 -31 -21.5 -52.5t-52.5 -21.5q-27 0 -45 18q-10 10 -15.5 31.5t-16 34.5t-37.5 13q-25 0 -41.5 -14.5t-16.5 -35.5q0 -19 21.5 -41t53.5 -42t69 -48t69 -57t53.5 -71.5t21.5 -89.5
zM187 369q-34 -41 -34 -80q0 -11 2 -21t8 -20.5l11 -18.5t17.5 -20.5l19.5 -19.5t25.5 -21.5l28 -22l33.5 -25.5l36 -27q34 37 34 76q0 18 -6.5 35t-14.5 29t-28.5 31t-34 29.5l-46 35.5z" />
    <glyph glyph-name="dieresis" unicode="&#xa8;" 
d="M65 659q27 0 46 -19t19 -46t-19 -46t-46 -19t-46 19t-19 46t19 46t46 19zM268 659q27 0 46 -19t19 -46t-19 -46t-46 -19t-46 19t-19 46t19 46t46 19z" />
    <glyph glyph-name="copyright" unicode="&#xa9;" horiz-adv-x="740" 
d="M460 301l79 -27q-19 -61 -61 -93.5t-103 -32.5q-86 0 -137.5 55.5t-51.5 149.5q0 97 51 154t139 57q120 0 163 -119l-79 -19q-26 68 -87 68q-48 0 -74.5 -36t-26.5 -102q0 -65 25.5 -102t71.5 -37q67 0 91 84zM370 656q-124 0 -212 -88t-88 -212q0 -125 88 -213t212 -88
t212.5 88.5t88.5 212.5t-88 212t-213 88zM370 730q155 0 264.5 -109.5t109.5 -264.5t-109.5 -264.5t-264.5 -109.5t-264.5 109.5t-109.5 264.5t109.5 264.5t264.5 109.5z" />
    <glyph glyph-name="ordfeminine" unicode="&#xaa;" horiz-adv-x="354" 
d="M353 486v-57q-49 -27 -93 -27q-45 0 -56 27q-47 -27 -94 -27q-38 0 -63 21.5t-25 53.5q0 15 5 27t17.5 22t22.5 17t31 14.5t32 11t36 10t32 8.5q0 22 -10.5 31.5t-34.5 9.5q-62 0 -115 -54v82q61 35 134 35q52 0 91.5 -19t39.5 -67v-119q0 -18 9 -18q12 0 41 18zM198 477
v59q-42 -14 -56 -24t-14 -26q0 -11 7 -18.5t18 -7.5q23 0 45 17z" />
    <glyph glyph-name="guillemotleft" unicode="&#xab;" horiz-adv-x="594" 
d="M424 229l159 -222h-143l-161 222l161 222h143zM154 229l159 -222h-143l-161 222l161 222h143z" />
    <glyph glyph-name="logicalnot" unicode="&#xac;" horiz-adv-x="584" 
d="M413 116v213h-371v128h499v-341h-128z" />
    <glyph glyph-name="uni00AD" unicode="&#xad;" 
d="M297 298v-133h-261v133h261z" />
    <glyph glyph-name="registered" unicode="&#xae;" horiz-adv-x="740" 
d="M546 156h-99l-32 65q-24 48 -54 78q-20 20 -65 20h-15v-163h-80v397h196q61 0 93 -30.5t32 -80.5q0 -45 -28.5 -75t-78.5 -36v-2q26 -9 40.5 -25t44.5 -68zM281 382h83q38 0 55.5 15.5t17.5 39.5q0 54 -82 54h-74v-109zM370 656q-124 0 -212 -88t-88 -212q0 -125 88 -213
t212 -88t212.5 88.5t88.5 212.5t-88 212t-213 88zM370 730q155 0 264.5 -109.5t109.5 -264.5t-109.5 -264.5t-264.5 -109.5t-264.5 109.5t-109.5 264.5t109.5 264.5t264.5 109.5z" />
    <glyph glyph-name="macron" unicode="&#xaf;" 
d="M360 643v-97h-387v97h387z" />
    <glyph glyph-name="degree" unicode="&#xb0;" horiz-adv-x="396" 
d="M198 728q64 0 110 -46t46 -110t-46 -110t-110 -46t-110 46t-46 110t46 110t110 46zM198 642q-29 0 -49.5 -20.5t-20.5 -49.5t20.5 -49.5t49.5 -20.5t49.5 20.5t20.5 49.5t-20.5 49.5t-49.5 20.5z" />
    <glyph glyph-name="plusminus" unicode="&#xb1;" horiz-adv-x="584" 
d="M42 0v128h500v-128h-500zM42 360v128h186v186h128v-186h186v-128h-186v-186h-128v186h-186z" />
    <glyph glyph-name="twosuperior" unicode="&#xb2;" 
d="M311 408v-76h-278v13q85 95 120.5 145t35.5 85q0 20 -13.5 33.5t-34.5 13.5q-43 0 -103 -51v85q65 35 118 35q62 0 98 -27t36 -74q0 -35 -25.5 -77t-80.5 -105h127z" />
    <glyph glyph-name="threesuperior" unicode="&#xb3;" 
d="M118 482v67q55 5 55 40q0 17 -14.5 27.5t-37.5 10.5q-33 0 -79 -22v69q44 17 98 17q59 0 97 -24.5t38 -63.5q0 -51 -57 -81q68 -27 68 -89q0 -47 -42 -76.5t-109 -29.5q-43 0 -103 24v76q52 -32 93 -32q25 0 40 11t15 30q0 41 -62 46z" />
    <glyph glyph-name="acute" unicode="&#xb4;" 
d="M326 676l-165 -146h-74l74 146h165z" />
    <glyph glyph-name="mu" unicode="&#xb5;" horiz-adv-x="615" 
d="M68 461h145v-225q0 -148 92 -148q44 0 70 34.5t26 95.5v243h145v-461h-135v60h-2q-11 -33 -39 -51t-60 -18q-67 0 -95 65h-2v-232h-145v637z" />
    <glyph glyph-name="paragraph" unicode="&#xb6;" horiz-adv-x="552" 
d="M310 -197h-119v511q-91 7 -141.5 59.5t-50.5 138.5q0 88 54 146t164 58h334v-128h-55v-785h-119v785h-67v-785z" />
    <glyph glyph-name="periodcentered" unicode="&#xb7;" horiz-adv-x="271" 
d="M135 432q36 0 61.5 -25.5t25.5 -61.5t-25.5 -61.5t-61.5 -25.5t-61.5 25.5t-25.5 61.5t25.5 61.5t61.5 25.5z" />
    <glyph glyph-name="cedilla" unicode="&#xb8;" 
d="M234 8l-13 -31q62 -22 62 -73q0 -37 -28.5 -60t-80.5 -23q-47 0 -74 9v51q45 -1 60.5 6.5t15.5 24.5q0 28 -41 28l39 68h60z" />
    <glyph glyph-name="onesuperior" unicode="&#xb9;" 
d="M219 691v-359h-104v359h104z" />
    <glyph glyph-name="ordmasculine" unicode="&#xba;" horiz-adv-x="396" 
d="M371 548q0 -65 -48 -105.5t-124 -40.5t-124.5 40.5t-48.5 102.5q0 63 49.5 104.5t123.5 41.5q75 0 123.5 -41t48.5 -102zM259 551q0 81 -62 81q-59 0 -59 -88q0 -83 62 -83q59 0 59 90z" />
    <glyph glyph-name="guillemotright" unicode="&#xbb;" horiz-adv-x="594" 
d="M439 229l-159 222h143l161 -222l-161 -222h-143zM171 229l-159 222h143l161 -222l-161 -222h-143z" />
    <glyph glyph-name="onequarter" unicode="&#xbc;" horiz-adv-x="896" 
d="M734 360v-212h28v-62h-28v-86h-101v86h-156v59l192 215h65zM633 226l-71 -78h71v78zM222 691v-359h-104v359h104zM673 691l-478 -718h-94l478 718h94z" />
    <glyph glyph-name="onehalf" unicode="&#xbd;" horiz-adv-x="896" 
d="M815 76v-76h-278v13q85 95 120.5 145t35.5 85q0 20 -13.5 33.5t-34.5 13.5q-43 0 -103 -51v85q65 35 118 35q62 0 98 -27t36 -74q0 -35 -25.5 -77t-80.5 -105h127zM673 691l-478 -718h-94l478 718h94zM222 691v-359h-104v359h104z" />
    <glyph glyph-name="threequarters" unicode="&#xbe;" horiz-adv-x="896" 
d="M121 482v67q55 5 55 40q0 17 -14.5 27.5t-37.5 10.5q-33 0 -79 -22v69q44 17 98 17q59 0 97 -24.5t38 -63.5q0 -51 -57 -81q68 -27 68 -89q0 -47 -42 -76.5t-109 -29.5q-43 0 -103 24v76q52 -32 93 -32q25 0 40 11t15 30q0 41 -62 46zM696 691l-478 -718h-94l478 718h94z
M757 360v-212h28v-62h-28v-86h-101v86h-156v59l192 215h65zM656 226l-71 -78h71v78z" />
    <glyph glyph-name="questiondown" unicode="&#xbf;" horiz-adv-x="375" 
d="M350 -87l-25 -123q-59 -20 -116 -20q-77 0 -121 38t-44 102q0 42 15 79.5t36.5 65l42.5 53.5t36 56.5t15 63.5v12q0 11 6 13.5t25 2.5q18 0 26 -8q7 -7 17.5 -41.5t10.5 -62.5q0 -42 -19.5 -82.5t-39 -74.5t-19.5 -58t15.5 -37.5t43.5 -13.5q25 0 42.5 7t43.5 28h9z
M217 296q-36 0 -61.5 25.5t-25.5 61.5t25.5 61.5t61.5 25.5t61.5 -25.5t25.5 -61.5t-25.5 -61.5t-61.5 -25.5z" />
    <glyph glyph-name="Agrave" unicode="&#xc0;" horiz-adv-x="781" 
d="M475 682l303 -682h-183l-56 135h-305l-51 -135h-180l275 682h197zM489 254l-110 265l-100 -265h210zM232 894h165l74 -146h-74z" />
    <glyph glyph-name="Aacute" unicode="&#xc1;" horiz-adv-x="781" 
d="M475 682l303 -682h-183l-56 135h-305l-51 -135h-180l275 682h197zM489 254l-110 265l-100 -265h210zM550 894l-165 -146h-74l74 146h165z" />
    <glyph glyph-name="Acircumflex" unicode="&#xc2;" horiz-adv-x="781" 
d="M475 682l303 -682h-183l-56 135h-305l-51 -135h-180l275 682h197zM489 254l-110 265l-100 -265h210zM459 900l99 -175h-89l-78 87l-80 -87h-88l99 175h137z" />
    <glyph glyph-name="Atilde" unicode="&#xc3;" horiz-adv-x="781" 
d="M475 682l303 -682h-183l-56 135h-305l-51 -135h-180l275 682h197zM489 254l-110 265l-100 -265h210zM517 889h68q-5 -72 -35 -111.5t-82 -39.5q-30 0 -86 27t-75 27q-39 0 -45 -52h-66q5 70 36.5 109.5t82.5 39.5q31 0 85 -27t73 -27q35 0 44 54z" />
    <glyph glyph-name="Adieresis" unicode="&#xc4;" horiz-adv-x="781" 
d="M475 682l303 -682h-183l-56 135h-305l-51 -135h-180l275 682h197zM489 254l-110 265l-100 -265h210zM289 877q27 0 46 -19t19 -46t-19 -46t-46 -19t-46 19t-19 46t19 46t46 19zM492 877q27 0 46 -19t19 -46t-19 -46t-46 -19t-46 19t-19 46t19 46t46 19z" />
    <glyph glyph-name="Aring" unicode="&#xc5;" horiz-adv-x="781" 
d="M475 682l303 -682h-183l-56 135h-305l-51 -135h-180l275 682h197zM489 254l-110 265l-100 -265h210zM391 882q-23 0 -38.5 -16t-15.5 -38q0 -23 16 -39t38 -16q23 0 39 16.5t16 38.5t-16 38t-39 16zM391 929q42 0 71.5 -29.5t29.5 -71.5t-29.5 -72t-71.5 -30t-72 30
t-30 72t30 71.5t72 29.5z" />
    <glyph glyph-name="AE" unicode="&#xc6;" horiz-adv-x="1073" 
d="M1008 682v-125h-318v-149h304v-125h-304v-158h327v-125h-497v283h-182l-169 -283h-175l408 682h606zM518 593l-105 -185h107v185h-2z" />
    <glyph glyph-name="Ccedilla" unicode="&#xc7;" horiz-adv-x="771" 
d="M712 208v-149q-74 -38 -134 -53t-149 -15l-8 -18q62 -22 62 -73q0 -37 -28.5 -60t-80.5 -23q-47 0 -74 9v51q45 -1 60.5 6.5t15.5 24.5q0 28 -41 28l35 61q-154 20 -238.5 117.5t-84.5 224.5q0 144 111.5 248t298.5 104q147 0 247 -60v-152q-125 70 -235 70
q-109 0 -178 -58t-69 -149q0 -92 68.5 -150.5t174.5 -58.5q61 0 110.5 16.5t136.5 58.5z" />
    <glyph glyph-name="Egrave" unicode="&#xc8;" horiz-adv-x="635" 
d="M581 125v-125h-503v682h496v-125h-326v-143h311v-125h-311v-164h333zM159 894h165l74 -146h-74z" />
    <glyph glyph-name="Eacute" unicode="&#xc9;" horiz-adv-x="635" 
d="M581 125v-125h-503v682h496v-125h-326v-143h311v-125h-311v-164h333zM477 894l-165 -146h-74l74 146h165z" />
    <glyph glyph-name="Ecircumflex" unicode="&#xca;" horiz-adv-x="635" 
d="M581 125v-125h-503v682h496v-125h-326v-143h311v-125h-311v-164h333zM386 900l99 -175h-89l-78 87l-80 -87h-88l99 175h137z" />
    <glyph glyph-name="Edieresis" unicode="&#xcb;" horiz-adv-x="635" 
d="M581 125v-125h-503v682h496v-125h-326v-143h311v-125h-311v-164h333zM216 877q27 0 46 -19t19 -46t-19 -46t-46 -19t-46 19t-19 46t19 46t46 19zM419 877q27 0 46 -19t19 -46t-19 -46t-46 -19t-46 19t-19 46t19 46t46 19z" />
    <glyph glyph-name="Igrave" unicode="&#xcc;" 
d="M252 682v-682h-170v682h170zM8 894h165l74 -146h-74z" />
    <glyph glyph-name="Iacute" unicode="&#xcd;" 
d="M252 682v-682h-170v682h170zM326 894l-165 -146h-74l74 146h165z" />
    <glyph glyph-name="Icircumflex" unicode="&#xce;" 
d="M252 682v-682h-170v682h170zM235 900l99 -175h-89l-78 87l-80 -87h-88l99 175h137z" />
    <glyph glyph-name="Idieresis" unicode="&#xcf;" 
d="M252 682v-682h-170v682h170zM65 877q27 0 46 -19t19 -46t-19 -46t-46 -19t-46 19t-19 46t19 46t46 19zM268 877q27 0 46 -19t19 -46t-19 -46t-46 -19t-46 19t-19 46t19 46t46 19z" />
    <glyph glyph-name="Eth" unicode="&#xd0;" horiz-adv-x="802" 
d="M75 682h301q179 0 278 -97t99 -245q0 -154 -100 -247t-296 -93h-282v296h-83v91h83v295zM245 557v-170h152v-91h-152v-171h111q61 0 106 19t69.5 52t35.5 69t11 76q0 95 -55 155.5t-169 60.5h-109z" />
    <glyph glyph-name="Ntilde" unicode="&#xd1;" horiz-adv-x="844" 
d="M767 682v-682h-143l-377 437v-437h-170v682h156l364 -417v417h170zM549 889h68q-5 -72 -35 -111.5t-82 -39.5q-30 0 -86 27t-75 27q-39 0 -45 -52h-66q5 70 36.5 109.5t82.5 39.5q31 0 85 -27t73 -27q35 0 44 54z" />
    <glyph glyph-name="Ograve" unicode="&#xd2;" horiz-adv-x="875" 
d="M828 341q0 -139 -107.5 -244.5t-282.5 -105.5q-90 0 -166 30t-124 80t-74.5 112t-26.5 128q0 63 25.5 124.5t73 112t123.5 82t169 31.5q92 0 168.5 -31.5t123.5 -82.5t72.5 -112t25.5 -124zM653 341q0 94 -59 151t-156 57t-156.5 -57t-59.5 -151t59.5 -151t156.5 -57
t156 57t59 151zM279 894h165l74 -146h-74z" />
    <glyph glyph-name="Oacute" unicode="&#xd3;" horiz-adv-x="875" 
d="M828 341q0 -139 -107.5 -244.5t-282.5 -105.5q-90 0 -166 30t-124 80t-74.5 112t-26.5 128q0 63 25.5 124.5t73 112t123.5 82t169 31.5q92 0 168.5 -31.5t123.5 -82.5t72.5 -112t25.5 -124zM653 341q0 94 -59 151t-156 57t-156.5 -57t-59.5 -151t59.5 -151t156.5 -57
t156 57t59 151zM597 894l-165 -146h-74l74 146h165z" />
    <glyph glyph-name="Ocircumflex" unicode="&#xd4;" horiz-adv-x="875" 
d="M828 341q0 -139 -107.5 -244.5t-282.5 -105.5q-90 0 -166 30t-124 80t-74.5 112t-26.5 128q0 63 25.5 124.5t73 112t123.5 82t169 31.5q92 0 168.5 -31.5t123.5 -82.5t72.5 -112t25.5 -124zM653 341q0 94 -59 151t-156 57t-156.5 -57t-59.5 -151t59.5 -151t156.5 -57
t156 57t59 151zM506 900l99 -175h-89l-78 87l-80 -87h-88l99 175h137z" />
    <glyph glyph-name="Otilde" unicode="&#xd5;" horiz-adv-x="875" 
d="M828 341q0 -139 -107.5 -244.5t-282.5 -105.5q-90 0 -166 30t-124 80t-74.5 112t-26.5 128q0 63 25.5 124.5t73 112t123.5 82t169 31.5q92 0 168.5 -31.5t123.5 -82.5t72.5 -112t25.5 -124zM653 341q0 94 -59 151t-156 57t-156.5 -57t-59.5 -151t59.5 -151t156.5 -57
t156 57t59 151zM564 889h68q-5 -72 -35 -111.5t-82 -39.5q-31 0 -87 27t-74 27q-39 0 -45 -52h-66q5 70 36.5 109.5t82.5 39.5q32 0 85 -27t73 -27q35 0 44 54z" />
    <glyph glyph-name="Odieresis" unicode="&#xd6;" horiz-adv-x="875" 
d="M828 341q0 -139 -107.5 -244.5t-282.5 -105.5q-90 0 -166 30t-124 80t-74.5 112t-26.5 128q0 63 25.5 124.5t73 112t123.5 82t169 31.5q92 0 168.5 -31.5t123.5 -82.5t72.5 -112t25.5 -124zM653 341q0 94 -59 151t-156 57t-156.5 -57t-59.5 -151t59.5 -151t156.5 -57
t156 57t59 151zM336 877q27 0 46 -19t19 -46t-19 -46t-46 -19t-46 19t-19 46t19 46t46 19zM539 877q27 0 46 -19t19 -46t-19 -46t-46 -19t-46 19t-19 46t19 46t46 19z" />
    <glyph glyph-name="multiply" unicode="&#xd7;" horiz-adv-x="584" 
d="M54 205l148 148l-148 148l90 90l148 -148l148 148l90 -90l-148 -148l148 -148l-90 -90l-148 148l-148 -148z" />
    <glyph glyph-name="Oslash" unicode="&#xd8;" horiz-adv-x="875" 
d="M197 61l-110 -98l-61 76l100 87q-79 94 -79 215q0 63 25.5 124.5t73 112t124 82t169.5 31.5q136 0 240 -71l84 76l69 -69l-83 -72q79 -94 79 -214q0 -66 -27 -128.5t-75.5 -112t-123 -79.5t-163.5 -30q-135 0 -242 70zM628 447l-314 -282q47 -32 125 -32q97 0 155.5 57
t58.5 151q0 64 -25 106zM247 236l315 281q-53 32 -123 32q-98 0 -157.5 -57t-59.5 -151q0 -62 25 -105z" />
    <glyph glyph-name="Ugrave" unicode="&#xd9;" horiz-adv-x="823" 
d="M582 682h170v-387q0 -159 -94 -231.5t-247 -72.5q-156 0 -248.5 75.5t-92.5 227.5v388h170v-392q0 -72 47 -114.5t122 -42.5q74 0 123.5 41.5t49.5 127.5v380zM253 894h165l74 -146h-74z" />
    <glyph glyph-name="Uacute" unicode="&#xda;" horiz-adv-x="823" 
d="M582 682h170v-387q0 -159 -94 -231.5t-247 -72.5q-156 0 -248.5 75.5t-92.5 227.5v388h170v-392q0 -72 47 -114.5t122 -42.5q74 0 123.5 41.5t49.5 127.5v380zM571 894l-165 -146h-74l74 146h165z" />
    <glyph glyph-name="Ucircumflex" unicode="&#xdb;" horiz-adv-x="823" 
d="M582 682h170v-387q0 -159 -94 -231.5t-247 -72.5q-156 0 -248.5 75.5t-92.5 227.5v388h170v-392q0 -72 47 -114.5t122 -42.5q74 0 123.5 41.5t49.5 127.5v380zM480 900l99 -175h-89l-78 87l-80 -87h-88l99 175h137z" />
    <glyph glyph-name="Udieresis" unicode="&#xdc;" horiz-adv-x="823" 
d="M582 682h170v-387q0 -159 -94 -231.5t-247 -72.5q-156 0 -248.5 75.5t-92.5 227.5v388h170v-392q0 -72 47 -114.5t122 -42.5q74 0 123.5 41.5t49.5 127.5v380zM310 877q27 0 46 -19t19 -46t-19 -46t-46 -19t-46 19t-19 46t19 46t46 19zM513 877q27 0 46 -19t19 -46
t-19 -46t-46 -19t-46 19t-19 46t19 46t46 19z" />
    <glyph glyph-name="Yacute" unicode="&#xdd;" horiz-adv-x="708" 
d="M269 0v319l-269 363h206l148 -214l149 214h205l-269 -363v-319h-170zM514 894l-165 -146h-74l74 146h165z" />
    <glyph glyph-name="Thorn" unicode="&#xde;" horiz-adv-x="656" 
d="M83 682h170v-137h134q108 0 167 -62t59 -140q0 -81 -58 -143.5t-167 -62.5h-135v-137h-170v682zM253 420v-158h79q57 0 81.5 19.5t24.5 59.5q0 44 -28 61.5t-97 17.5h-60z" />
    <glyph glyph-name="germandbls" unicode="&#xdf;" horiz-adv-x="604" 
d="M65 0v476q0 76 32.5 126t80 69.5t108.5 19.5q108 0 173 -47t65 -126q0 -44 -23.5 -79.5t-64.5 -52.5q116 -44 116 -186q0 -93 -56 -151t-146 -58q-35 0 -68 9v93q21 -7 27 -7q44 0 70 36t26 96q0 65 -30 99.5t-87 31.5v72q45 -2 67 23.5t22 68.5t-22 67.5t-60 24.5
q-48 0 -66.5 -33t-18.5 -94v-478h-145z" />
    <glyph glyph-name="agrave" unicode="&#xe0;" horiz-adv-x="531" 
d="M531 114v-81q-70 -42 -136 -42q-36 0 -54.5 12t-26.5 40q-77 -52 -152 -52q-54 0 -91.5 34t-37.5 79q0 23 6 41.5t12.5 32t27 27.5t33.5 22t49.5 21.5t57 20l72.5 22.5q11 3 16 5q2 35 -16.5 56t-63.5 21q-43 0 -89 -21t-81 -56v118q91 56 200 56q195 0 195 -140v-210
q0 -32 24 -32q18 0 55 26zM307 112v111q-71 -26 -99 -45.5t-28 -51.5q0 -20 14 -34.5t33 -14.5q42 0 80 35zM107 676h165l74 -146h-74z" />
    <glyph glyph-name="aacute" unicode="&#xe1;" horiz-adv-x="531" 
d="M531 114v-81q-70 -42 -136 -42q-36 0 -54.5 12t-26.5 40q-77 -52 -152 -52q-54 0 -91.5 34t-37.5 79q0 23 6 41.5t12.5 32t27 27.5t33.5 22t49.5 21.5t57 20l72.5 22.5q11 3 16 5q2 35 -16.5 56t-63.5 21q-43 0 -89 -21t-81 -56v118q91 56 200 56q195 0 195 -140v-210
q0 -32 24 -32q18 0 55 26zM307 112v111q-71 -26 -99 -45.5t-28 -51.5q0 -20 14 -34.5t33 -14.5q42 0 80 35zM425 676l-165 -146h-74l74 146h165z" />
    <glyph glyph-name="acircumflex" unicode="&#xe2;" horiz-adv-x="531" 
d="M531 114v-81q-70 -42 -136 -42q-36 0 -54.5 12t-26.5 40q-77 -52 -152 -52q-54 0 -91.5 34t-37.5 79q0 23 6 41.5t12.5 32t27 27.5t33.5 22t49.5 21.5t57 20l72.5 22.5q11 3 16 5q2 35 -16.5 56t-63.5 21q-43 0 -89 -21t-81 -56v118q91 56 200 56q195 0 195 -140v-210
q0 -32 24 -32q18 0 55 26zM307 112v111q-71 -26 -99 -45.5t-28 -51.5q0 -20 14 -34.5t33 -14.5q42 0 80 35zM334 682l99 -175h-89l-78 87l-80 -87h-88l99 175h137z" />
    <glyph glyph-name="atilde" unicode="&#xe3;" horiz-adv-x="531" 
d="M531 114v-81q-70 -42 -136 -42q-36 0 -54.5 12t-26.5 40q-77 -52 -152 -52q-54 0 -91.5 34t-37.5 79q0 23 6 41.5t12.5 32t27 27.5t33.5 22t49.5 21.5t57 20l72.5 22.5q11 3 16 5q2 35 -16.5 56t-63.5 21q-43 0 -89 -21t-81 -56v118q91 56 200 56q195 0 195 -140v-210
q0 -32 24 -32q18 0 55 26zM307 112v111q-71 -26 -99 -45.5t-28 -51.5q0 -20 14 -34.5t33 -14.5q42 0 80 35zM392 671h68q-5 -72 -35 -111.5t-82 -39.5q-31 0 -87 27t-74 27q-39 0 -45 -52h-66q5 70 36.5 109.5t82.5 39.5q32 0 85 -27t73 -27q35 0 44 54z" />
    <glyph glyph-name="adieresis" unicode="&#xe4;" horiz-adv-x="531" 
d="M531 114v-81q-70 -42 -136 -42q-36 0 -54.5 12t-26.5 40q-77 -52 -152 -52q-54 0 -91.5 34t-37.5 79q0 23 6 41.5t12.5 32t27 27.5t33.5 22t49.5 21.5t57 20l72.5 22.5q11 3 16 5q2 35 -16.5 56t-63.5 21q-43 0 -89 -21t-81 -56v118q91 56 200 56q195 0 195 -140v-210
q0 -32 24 -32q18 0 55 26zM307 112v111q-71 -26 -99 -45.5t-28 -51.5q0 -20 14 -34.5t33 -14.5q42 0 80 35zM164 659q27 0 46 -19t19 -46t-19 -46t-46 -19t-46 19t-19 46t19 46t46 19zM367 659q27 0 46 -19t19 -46t-19 -46t-46 -19t-46 19t-19 46t19 46t46 19z" />
    <glyph glyph-name="aring" unicode="&#xe5;" horiz-adv-x="531" 
d="M531 114v-81q-70 -42 -136 -42q-36 0 -54.5 12t-26.5 40q-77 -52 -152 -52q-54 0 -91.5 34t-37.5 79q0 23 6 41.5t12.5 32t27 27.5t33.5 22t49.5 21.5t57 20l72.5 22.5q11 3 16 5q2 35 -16.5 56t-63.5 21q-43 0 -89 -21t-81 -56v118q91 56 200 56q195 0 195 -140v-210
q0 -32 24 -32q18 0 55 26zM307 112v111q-71 -26 -99 -45.5t-28 -51.5q0 -20 14 -34.5t33 -14.5q42 0 80 35zM266 664q-22 0 -38 -16t-16 -38q0 -23 16 -39t38 -16t38.5 16.5t16.5 38.5t-16 38t-39 16zM266 711q42 0 71.5 -29.5t29.5 -71.5t-29.5 -72t-71.5 -30t-72 30
t-30 72t30 71.5t72 29.5z" />
    <glyph glyph-name="ae" unicode="&#xe6;" horiz-adv-x="781" 
d="M741 149v-95q-85 -63 -200 -63q-118 0 -187 63q-83 -63 -187 -63q-60 0 -95.5 33.5t-35.5 81.5q0 83 95 129q46 22 183 60q4 36 -19.5 57t-62.5 21q-40 0 -90 -22t-86 -56v115q103 60 190 60q45 0 77.5 -11t72.5 -40q58 51 137 51q95 0 158.5 -73.5t56.5 -188.5h-289
q-3 -61 28.5 -96t85.5 -35q87 0 168 72zM459 284h150q-8 100 -77 100q-70 0 -73 -100zM314 110v113q-131 -36 -131 -98q0 -21 13 -34.5t33 -13.5q33 0 85 33z" />
    <glyph glyph-name="ccedilla" unicode="&#xe7;" horiz-adv-x="500" 
d="M463 126v-104q-86 -31 -166 -31l-6 -14q62 -22 62 -73q0 -37 -28.5 -60t-80.5 -23q-47 0 -74 9v51q45 -1 60.5 6.5t15.5 24.5q0 28 -41 28l33 58q-92 17 -145 78t-53 153q0 106 73.5 173.5t187.5 67.5q75 0 155 -30v-108q-59 31 -118 31q-65 0 -104 -36t-39 -97t38 -98.5
t100 -37.5q45 0 130 32z" />
    <glyph glyph-name="egrave" unicode="&#xe8;" horiz-adv-x="552" 
d="M510 143v-91q-83 -61 -206 -61q-121 0 -194 65t-73 173q0 106 68 173.5t175 67.5q105 0 174 -71t64 -192h-331q4 -62 44 -96t108 -34q44 0 82 14.5t89 51.5zM190 283h200q-4 47 -31 74t-69 27q-43 0 -69.5 -26.5t-30.5 -74.5zM118 676h165l74 -146h-74z" />
    <glyph glyph-name="eacute" unicode="&#xe9;" horiz-adv-x="552" 
d="M510 143v-91q-83 -61 -206 -61q-121 0 -194 65t-73 173q0 106 68 173.5t175 67.5q105 0 174 -71t64 -192h-331q4 -62 44 -96t108 -34q44 0 82 14.5t89 51.5zM190 283h200q-4 47 -31 74t-69 27q-43 0 -69.5 -26.5t-30.5 -74.5zM436 676l-165 -146h-74l74 146h165z" />
    <glyph glyph-name="ecircumflex" unicode="&#xea;" horiz-adv-x="552" 
d="M510 143v-91q-83 -61 -206 -61q-121 0 -194 65t-73 173q0 106 68 173.5t175 67.5q105 0 174 -71t64 -192h-331q4 -62 44 -96t108 -34q44 0 82 14.5t89 51.5zM190 283h200q-4 47 -31 74t-69 27q-43 0 -69.5 -26.5t-30.5 -74.5zM345 682l99 -175h-89l-78 87l-80 -87h-88
l99 175h137z" />
    <glyph glyph-name="edieresis" unicode="&#xeb;" horiz-adv-x="552" 
d="M510 143v-91q-83 -61 -206 -61q-121 0 -194 65t-73 173q0 106 68 173.5t175 67.5q105 0 174 -71t64 -192h-331q4 -62 44 -96t108 -34q44 0 82 14.5t89 51.5zM190 283h200q-4 47 -31 74t-69 27q-43 0 -69.5 -26.5t-30.5 -74.5zM175 659q27 0 46 -19t19 -46t-19 -46
t-46 -19t-46 19t-19 46t19 46t46 19zM378 659q27 0 46 -19t19 -46t-19 -46t-46 -19t-46 19t-19 46t19 46t46 19z" />
    <glyph glyph-name="igrave" unicode="&#xec;" horiz-adv-x="271" 
d="M208 461v-461h-145v461h145zM-23 676h165l74 -146h-74z" />
    <glyph glyph-name="iacute" unicode="&#xed;" horiz-adv-x="271" 
d="M208 461v-461h-145v461h145zM295 676l-165 -146h-74l74 146h165z" />
    <glyph glyph-name="icircumflex" unicode="&#xee;" horiz-adv-x="271" 
d="M208 461v-461h-145v461h145zM204 682l99 -175h-89l-78 87l-80 -87h-88l99 175h137z" />
    <glyph glyph-name="idieresis" unicode="&#xef;" horiz-adv-x="271" 
d="M208 461v-461h-145v461h145zM34 659q27 0 46 -19t19 -46t-19 -46t-46 -19t-46 19t-19 46t19 46t46 19zM237 659q27 0 46 -19t19 -46t-19 -46t-46 -19t-46 19t-19 46t19 46t46 19z" />
    <glyph glyph-name="eth" unicode="&#xf0;" horiz-adv-x="615" 
d="M411 234q0 150 -104 150q-49 0 -77.5 -38.5t-28.5 -114.5q0 -83 29.5 -118.5t76.5 -35.5q51 0 77.5 40.5t26.5 116.5zM536 629l-100 -35q130 -129 130 -324q0 -64 -17.5 -114.5t-44 -80.5t-62.5 -49.5t-69 -27t-66 -7.5q-114 0 -187.5 66t-73.5 174q0 100 67 169.5
t165 69.5q56 0 111 -36l2 1q-19 50 -86 112l-145 -51l-22 60l110 39q-29 21 -52 32l91 64q51 -22 90 -49l137 49z" />
    <glyph glyph-name="ntilde" unicode="&#xf1;" horiz-adv-x="583" 
d="M205 461v-66q65 75 150 75q66 0 117 -42.5t51 -134.5v-293h-145v281q0 47 -19.5 69.5t-52.5 22.5q-27 0 -50 -17t-51 -59v-297h-145v461h145zM418 671h68q-5 -72 -35 -111.5t-82 -39.5q-31 0 -87 27t-74 27q-39 0 -45 -52h-66q5 70 36.5 109.5t82.5 39.5q32 0 85 -27
t73 -27q35 0 44 54z" />
    <glyph glyph-name="ograve" unicode="&#xf2;" horiz-adv-x="594" 
d="M557 230q0 -53 -17.5 -95t-44.5 -68.5t-62 -44t-68.5 -24.5t-66.5 -7q-114 0 -187.5 66t-73.5 174q0 112 76 175.5t185 63.5q45 0 88.5 -13t83 -40t63.5 -75.5t24 -111.5zM402 234q0 150 -104 150q-49 0 -77.5 -38.5t-28.5 -114.5q0 -83 29.5 -118.5t76.5 -35.5
q51 0 77.5 40.5t26.5 116.5zM139 676h165l74 -146h-74z" />
    <glyph glyph-name="oacute" unicode="&#xf3;" horiz-adv-x="594" 
d="M557 230q0 -53 -17.5 -95t-44.5 -68.5t-62 -44t-68.5 -24.5t-66.5 -7q-114 0 -187.5 66t-73.5 174q0 112 76 175.5t185 63.5q45 0 88.5 -13t83 -40t63.5 -75.5t24 -111.5zM402 234q0 150 -104 150q-49 0 -77.5 -38.5t-28.5 -114.5q0 -83 29.5 -118.5t76.5 -35.5
q51 0 77.5 40.5t26.5 116.5zM457 676l-165 -146h-74l74 146h165z" />
    <glyph glyph-name="ocircumflex" unicode="&#xf4;" horiz-adv-x="594" 
d="M557 230q0 -53 -17.5 -95t-44.5 -68.5t-62 -44t-68.5 -24.5t-66.5 -7q-114 0 -187.5 66t-73.5 174q0 112 76 175.5t185 63.5q45 0 88.5 -13t83 -40t63.5 -75.5t24 -111.5zM402 234q0 150 -104 150q-49 0 -77.5 -38.5t-28.5 -114.5q0 -83 29.5 -118.5t76.5 -35.5
q51 0 77.5 40.5t26.5 116.5zM366 682l99 -175h-89l-78 87l-80 -87h-88l99 175h137z" />
    <glyph glyph-name="otilde" unicode="&#xf5;" horiz-adv-x="594" 
d="M557 230q0 -53 -17.5 -95t-44.5 -68.5t-62 -44t-68.5 -24.5t-66.5 -7q-114 0 -187.5 66t-73.5 174q0 112 76 175.5t185 63.5q45 0 88.5 -13t83 -40t63.5 -75.5t24 -111.5zM402 234q0 150 -104 150q-49 0 -77.5 -38.5t-28.5 -114.5q0 -83 29.5 -118.5t76.5 -35.5
q51 0 77.5 40.5t26.5 116.5zM424 671h68q-5 -72 -35 -111.5t-82 -39.5q-31 0 -86.5 27t-74.5 27q-39 0 -45 -52h-66q5 70 36.5 109.5t82.5 39.5q31 0 84.5 -27t73.5 -27q35 0 44 54z" />
    <glyph glyph-name="odieresis" unicode="&#xf6;" horiz-adv-x="594" 
d="M557 230q0 -53 -17.5 -95t-44.5 -68.5t-62 -44t-68.5 -24.5t-66.5 -7q-114 0 -187.5 66t-73.5 174q0 112 76 175.5t185 63.5q45 0 88.5 -13t83 -40t63.5 -75.5t24 -111.5zM402 234q0 150 -104 150q-49 0 -77.5 -38.5t-28.5 -114.5q0 -83 29.5 -118.5t76.5 -35.5
q51 0 77.5 40.5t26.5 116.5zM196 659q27 0 46 -19t19 -46t-19 -46t-46 -19t-46 19t-19 46t19 46t46 19zM399 659q27 0 46 -19t19 -46t-19 -46t-46 -19t-46 19t-19 46t19 46t46 19z" />
    <glyph glyph-name="divide" unicode="&#xf7;" horiz-adv-x="584" 
d="M292 229q30 0 51.5 -21.5t21.5 -51.5t-21.5 -51.5t-51.5 -21.5t-51.5 21.5t-21.5 51.5t21.5 51.5t51.5 21.5zM42 289v128h500v-128h-500zM292 623q30 0 51.5 -21.5t21.5 -51.5t-21.5 -51.5t-51.5 -21.5t-51.5 21.5t-21.5 51.5t21.5 51.5t51.5 21.5z" />
    <glyph glyph-name="oslash" unicode="&#xf8;" horiz-adv-x="594" 
d="M198 166l165 195q-26 23 -65 23q-49 0 -77.5 -38.5t-28.5 -114.5q0 -39 6 -65zM165 21l-65 -75l-51 45l59 69q-71 67 -71 171q0 112 76 175.5t185 63.5q73 0 132 -29l70 81l53 -51l-62 -73q66 -63 66 -168q0 -53 -17.5 -95t-44.5 -68.5t-62 -44t-68.5 -24.5t-66.5 -7
q-78 0 -133 30zM397 291l-164 -191q23 -23 65 -23q51 0 77.5 40.5t26.5 116.5q0 33 -5 57z" />
    <glyph glyph-name="ugrave" unicode="&#xf9;" horiz-adv-x="583" 
d="M378 0v66q-65 -75 -149 -75q-73 0 -121 45t-48 130v295h145v-285q0 -46 20.5 -67t52.5 -21q33 0 60.5 22.5t38.5 56.5v294h146v-461h-145zM133 676h165l74 -146h-74z" />
    <glyph glyph-name="uacute" unicode="&#xfa;" horiz-adv-x="583" 
d="M378 0v66q-65 -75 -149 -75q-73 0 -121 45t-48 130v295h145v-285q0 -46 20.5 -67t52.5 -21q33 0 60.5 22.5t38.5 56.5v294h146v-461h-145zM451 676l-165 -146h-74l74 146h165z" />
    <glyph glyph-name="ucircumflex" unicode="&#xfb;" horiz-adv-x="583" 
d="M378 0v66q-65 -75 -149 -75q-73 0 -121 45t-48 130v295h145v-285q0 -46 20.5 -67t52.5 -21q33 0 60.5 22.5t38.5 56.5v294h146v-461h-145zM360 682l99 -175h-89l-78 87l-80 -87h-88l99 175h137z" />
    <glyph glyph-name="udieresis" unicode="&#xfc;" horiz-adv-x="583" 
d="M378 0v66q-65 -75 -149 -75q-73 0 -121 45t-48 130v295h145v-285q0 -46 20.5 -67t52.5 -21q33 0 60.5 22.5t38.5 56.5v294h146v-461h-145zM190 659q27 0 46 -19t19 -46t-19 -46t-46 -19t-46 19t-19 46t19 46t46 19zM393 659q27 0 46 -19t19 -46t-19 -46t-46 -19t-46 19
t-19 46t19 46t46 19z" />
    <glyph glyph-name="yacute" unicode="&#xfd;" horiz-adv-x="510" 
d="M509 461l-309 -682h-154l135 296l-180 386h155l97 -237l104 237h152zM415 676l-165 -146h-74l74 146h165z" />
    <glyph glyph-name="thorn" unicode="&#xfe;" horiz-adv-x="583" 
d="M202 682v-261q59 49 132 49q90 0 152 -67.5t62 -166.5q0 -111 -62 -178t-165 -67q-65 0 -119 32v-253h-145v912h145zM202 330v-212q41 -30 84 -30q53 0 84 37.5t31 102.5q0 66 -28.5 102.5t-80.5 36.5q-42 0 -90 -37z" />
    <glyph glyph-name="ydieresis" unicode="&#xff;" horiz-adv-x="510" 
d="M509 461l-309 -682h-154l135 296l-180 386h155l97 -237l104 237h152zM154 659q27 0 46 -19t19 -46t-19 -46t-46 -19t-46 19t-19 46t19 46t46 19zM357 659q27 0 46 -19t19 -46t-19 -46t-46 -19t-46 19t-19 46t19 46t46 19z" />
    <glyph glyph-name="dotlessi" unicode="&#x131;" horiz-adv-x="271" 
d="M208 461v-461h-145v461h145z" />
    <glyph glyph-name="Lslash" unicode="&#x141;" horiz-adv-x="615" 
d="M596 125v-125h-520v218l-94 -77v137l94 77v327h170v-202l140 115v-138l-140 -115v-217h350z" />
    <glyph glyph-name="lslash" unicode="&#x142;" horiz-adv-x="271" 
d="M208 682v-224l77 64v-116l-77 -64v-342h-145v239l-77 -64v115l77 64v328h145z" />
    <glyph glyph-name="OE" unicode="&#x152;" horiz-adv-x="1094" 
d="M1034 682v-125h-319v-143h305v-125h-305v-164h326v-125h-613q-170 0 -275.5 90.5t-105.5 252.5q0 154 102 246.5t278 92.5h607zM545 557h-82q-112 0 -176.5 -62.5t-64.5 -153.5q0 -92 65 -154t176 -62h82v432z" />
    <glyph glyph-name="oe" unicode="&#x153;" horiz-adv-x="875" 
d="M837 149v-99q-85 -59 -182 -59t-179 59q-79 -59 -179 -59q-111 0 -186 69t-75 173q0 102 75 169.5t188 67.5q48 0 86.5 -12t83.5 -43q40 32 69 43.5t70 11.5q105 0 173.5 -70t63.5 -192h-297q-2 -57 33 -94t89 -37q90 0 167 72zM548 284h164q0 42 -22.5 71t-62.5 29
q-35 0 -57 -27.5t-22 -72.5zM403 240q0 69 -28 106.5t-80 37.5q-104 0 -104 -155q0 -152 106 -152q54 0 80 39.5t26 123.5z" />
    <glyph glyph-name="Scaron" unicode="&#x160;" horiz-adv-x="604" 
d="M534 638v-133q-137 61 -216 61q-46 0 -73 -15t-27 -41q0 -21 19 -37t49.5 -28.5t68 -25.5t74.5 -31t67.5 -41.5t49.5 -62t19 -86.5q0 -96 -72.5 -151.5t-189.5 -55.5q-56 0 -104 10.5t-72.5 21.5t-69.5 34v147q74 -49 125.5 -68.5t107.5 -19.5q100 0 100 63
q0 22 -19 39.5t-49.5 29.5t-68 25t-74.5 30.5t-67.5 41t-49.5 62t-19 88.5q0 89 71 142.5t189 53.5q108 0 231 -53zM234 725l-99 175h89l78 -87l80 87h88l-99 -175h-137z" />
    <glyph glyph-name="scaron" unicode="&#x161;" horiz-adv-x="427" 
d="M377 436v-103q-82 51 -154 51q-52 0 -52 -36q0 -16 36 -32.5t78.5 -32t78.5 -53t36 -89.5q0 -72 -49 -111t-139 -39q-49 0 -97 11.5t-68 22.5v102q92 -39 149 -39q32 0 51 9t19 25q0 18 -23.5 32t-57 26.5t-67.5 28.5t-57.5 46.5t-23.5 72.5q0 64 52.5 103t138.5 39
q81 0 149 -34zM145 507l-99 175h89l78 -87l80 87h88l-99 -175h-137z" />
    <glyph glyph-name="Ydieresis" unicode="&#x178;" horiz-adv-x="708" 
d="M269 0v319l-269 363h206l148 -214l149 214h205l-269 -363v-319h-170zM253 877q27 0 46 -19t19 -46t-19 -46t-46 -19t-46 19t-19 46t19 46t46 19zM456 877q27 0 46 -19t19 -46t-19 -46t-46 -19t-46 19t-19 46t19 46t46 19z" />
    <glyph glyph-name="Zcaron" unicode="&#x17d;" horiz-adv-x="698" 
d="M666 682l-372 -557h372v-125h-662l375 557h-349v125h636zM281 725l-99 175h89l78 -87l80 87h88l-99 -175h-137z" />
    <glyph glyph-name="zcaron" unicode="&#x17e;" horiz-adv-x="521" 
d="M42 461h450l-236 -362h236v-99h-473l237 362h-214v99zM192 507l-99 175h89l78 -87l80 87h88l-99 -175h-137z" />
    <glyph glyph-name="florin" unicode="&#x192;" horiz-adv-x="552" 
d="M135 415l18 103h98l15 83q12 67 47 97t114 30q69 0 131 -20l-27 -110q-45 13 -77 13q-29 0 -41 -13t-19 -52l-5 -28h101l-18 -103h-100l-85 -485q-13 -74 -47.5 -107t-112.5 -33q-75 0 -137 19l28 108q47 -10 83 -10q28 0 39 15t20 67l73 426h-98z" />
    <glyph glyph-name="circumflex" unicode="&#x2c6;" 
d="M235 682l99 -175h-89l-78 87l-80 -87h-88l99 175h137z" />
    <glyph glyph-name="caron" unicode="&#x2c7;" 
d="M98 507l-99 175h89l78 -87l80 87h88l-99 -175h-137z" />
    <glyph glyph-name="uni02C9" unicode="&#x2c9;" 
d="M360 643v-97h-387v97h387z" />
    <glyph glyph-name="breve" unicode="&#x2d8;" 
d="M250 721h99q-5 -62 -52 -112q-52 -59 -128 -59q-71 0 -120 45t-65 126h100q10 -31 31 -47q19 -15 51 -15q67 0 84 62z" />
    <glyph glyph-name="dotaccent" unicode="&#x2d9;" 
d="M167 659q27 0 46 -19t19 -46t-19 -46t-46 -19t-46 19t-19 46t19 46t46 19z" />
    <glyph glyph-name="ring" unicode="&#x2da;" 
d="M167 664q-23 0 -38.5 -16t-15.5 -38q0 -23 16 -39t38 -16q23 0 39 16.5t16 38.5t-16 38t-39 16zM167 711q42 0 71.5 -29.5t29.5 -71.5t-29.5 -72t-71.5 -30t-72 30t-30 72t30 71.5t72 29.5z" />
    <glyph glyph-name="ogonek" unicode="&#x2db;" 
d="M254 -93v-80q-36 -15 -77 -15q-47 0 -74.5 30.5t-27.5 82.5q0 47 25 84h79q-16 -39 -16 -56q0 -24 15 -39.5t38 -15.5q11 0 38 9z" />
    <glyph glyph-name="tilde" unicode="&#x2dc;" 
d="M293 671h68q-5 -72 -35 -111.5t-82 -39.5q-30 0 -86 27t-75 27q-39 0 -45 -52h-66q5 70 36.5 109.5t82.5 39.5q31 0 85 -27t73 -27q35 0 44 54z" />
    <glyph glyph-name="hungarumlaut" unicode="&#x2dd;" 
d="M378 676l-131 -146h-71l52 146h150zM192 676l-131 -146h-71l52 146h150z" />
    <glyph glyph-name="uni03A9" unicode="&#x3a9;" horiz-adv-x="698" 
d="M167 108v3q-118 106 -118 265q0 128 84.5 218.5t217.5 90.5q136 0 216 -93.5t80 -209.5q0 -85 -34.5 -155.5t-85.5 -115.5v-3h133v-108h-266v80q51 32 83.5 100t32.5 174q0 93 -42.5 156.5t-117.5 63.5q-74 0 -119.5 -63t-45.5 -163q0 -97 33.5 -168.5t82.5 -99.5v-80
h-266v108h132z" />
    <glyph glyph-name="uni03BC" unicode="&#x3bc;" horiz-adv-x="615" 
d="M68 461h145v-225q0 -148 92 -148q44 0 70 34.5t26 95.5v243h145v-461h-135v60h-2q-11 -33 -39 -51t-60 -18q-67 0 -95 65h-2v-232h-145v637z" />
    <glyph glyph-name="pi" unicode="&#x3c0;" horiz-adv-x="599" 
d="M575 395h-67v-249q0 -93 12 -146h-130q-18 29 -18 140v255h-127q-3 -88 -20 -207t-41 -188h-131q24 84 41 200.5t18 194.5q-63 0 -94 -10l-15 89q42 34 165 34h417z" />
    <glyph glyph-name="uni2010" unicode="&#x2010;" 
d="M297 298v-133h-261v133h261z" />
    <glyph glyph-name="endash" unicode="&#x2013;" horiz-adv-x="500" 
d="M506 297v-132h-512v132h512z" />
    <glyph glyph-name="emdash" unicode="&#x2014;" horiz-adv-x="1000" 
d="M1006 297v-132h-1012v132h1012z" />
    <glyph glyph-name="quoteleft" unicode="&#x2018;" horiz-adv-x="271" 
d="M221 691v-31q-22 -20 -35.5 -57t-9.5 -72q51 -20 51 -73q0 -34 -23.5 -56.5t-58.5 -22.5q-44 0 -72 32t-28 82q0 75 51.5 133t124.5 65z" />
    <glyph glyph-name="quoteright" unicode="&#x2019;" horiz-adv-x="271" 
d="M50 379v31q22 20 35.5 57t9.5 72q-51 20 -51 73q0 34 23.5 56.5t58.5 22.5q44 0 72 -32t28 -82q0 -75 -51.5 -133t-124.5 -65z" />
    <glyph glyph-name="quotesinglbase" unicode="&#x201a;" horiz-adv-x="271" 
d="M50 -169v31q22 20 35.5 57t9.5 72q-51 20 -51 73q0 34 23.5 56.5t58.5 22.5q44 0 72 -32t28 -82q0 -75 -51.5 -133t-124.5 -65z" />
    <glyph glyph-name="quotedblleft" unicode="&#x201c;" horiz-adv-x="563" 
d="M511 691v-31q-22 -20 -35.5 -57t-9.5 -72q51 -20 51 -73q0 -34 -23.5 -56.5t-58.5 -22.5q-44 0 -72 32t-28 82q0 75 51.5 133t124.5 65zM233 691v-31q-22 -20 -35.5 -57t-9.5 -72q51 -20 51 -73q0 -34 -23.5 -56.5t-58.5 -22.5q-44 0 -72 32t-28 82q0 75 51.5 133
t124.5 65z" />
    <glyph glyph-name="quotedblright" unicode="&#x201d;" horiz-adv-x="563" 
d="M330 379v31q22 20 35.5 57t9.5 72q-51 20 -51 73q0 34 23.5 56.5t58.5 22.5q44 0 72 -32t28 -82q0 -75 -51.5 -133t-124.5 -65zM52 379v31q22 20 35.5 57t9.5 72q-51 20 -51 73q0 34 23.5 56.5t58.5 22.5q44 0 72 -32t28 -82q0 -75 -51.5 -133t-124.5 -65z" />
    <glyph glyph-name="quotedblbase" unicode="&#x201e;" horiz-adv-x="563" 
d="M336 -169v31q22 20 35.5 57t9.5 72q-51 20 -51 73q0 34 23.5 56.5t58.5 22.5q44 0 72 -32t28 -82q0 -75 -51.5 -133t-124.5 -65zM57 -169v31q22 20 35.5 57t9.5 72q-51 20 -51 73q0 34 23.5 56.5t58.5 22.5q44 0 72 -32t28 -82q0 -75 -51.5 -133t-124.5 -65z" />
    <glyph glyph-name="dagger" unicode="&#x2020;" horiz-adv-x="510" 
d="M226 381l-174 -38q-14 -3 -20.5 5t-6.5 33v62q0 24 6 33.5t21 5.5l174 -39l-36 220q-2 16 5 22t31 6h59q23 0 30 -6t5 -21l-35 -221l173 39q14 3 21 -5.5t7 -33.5v-62q0 -23 -6.5 -32t-20.5 -6l-174 38l54 -588q3 -23 -32 -23h-104q-18 0 -25.5 6.5t-6.5 19.5z" />
    <glyph glyph-name="daggerdbl" unicode="&#x2021;" horiz-adv-x="510" 
d="M445 71q23 5 31.5 -8.5t8.5 -53.5q0 -34 -4 -50t-11 -17t-17 1l-173 39l41 -172q5 -22 -8.5 -31t-57.5 -9q-45 0 -58 9t-8 31l40 172l-172 -39q-19 -4 -25.5 8t-6.5 61q0 39 8.5 51.5t31.5 7.5l164 -39l-40 199l40 198l-164 -39q-21 -5 -30.5 6.5t-9.5 57.5q0 28 3 43.5
t8 20t13 2.5l180 -41l-40 172q-5 23 8.5 31.5t57.5 8.5q42 0 57 -8.5t10 -28.5l-42 -175l173 39q18 4 25 -7t7 -61q0 -41 -9.5 -53t-30.5 -7l-165 39l41 -198l-41 -199z" />
    <glyph glyph-name="bullet" unicode="&#x2022;" horiz-adv-x="354" 
d="M176 485q60 0 102 -42t42 -102t-42 -102t-102 -42t-102 42t-42 102t42 102t102 42z" />
    <glyph glyph-name="ellipsis" unicode="&#x2026;" horiz-adv-x="1000" 
d="M833 165q36 0 61.5 -25.5t25.5 -61.5t-25.5 -61.5t-61.5 -25.5t-61.5 25.5t-25.5 61.5t25.5 61.5t61.5 25.5zM500 165q36 0 61.5 -25.5t25.5 -61.5t-25.5 -61.5t-61.5 -25.5t-61.5 25.5t-25.5 61.5t25.5 61.5t61.5 25.5zM167 165q36 0 61.5 -25.5t25.5 -61.5t-25.5 -61.5
t-61.5 -25.5t-61.5 25.5t-25.5 61.5t25.5 61.5t61.5 25.5z" />
    <glyph glyph-name="perthousand" unicode="&#x2030;" horiz-adv-x="1083" 
d="M254 530q0 31 -21 53t-50 22q-30 0 -50.5 -21.5t-20.5 -53.5q0 -30 21 -52.5t50 -22.5q30 0 50.5 21.5t20.5 53.5zM344 530q0 -66 -47 -113.5t-114 -47.5t-114 47.5t-47 113.5q0 67 47 114t114 47t114 -47t47 -114zM636 691l-477 -699h-83l480 699h80zM1061 152
q0 -66 -47 -113.5t-114 -47.5t-114 47.5t-47 113.5q0 67 47 114t114 47t114 -47t47 -114zM971 152q0 31 -21 53t-50 22q-30 0 -50.5 -21.5t-20.5 -53.5q0 -30 21 -52.5t50 -22.5q30 0 50.5 21.5t20.5 53.5zM692 152q0 -66 -47 -113.5t-114 -47.5t-114 47.5t-47 113.5
q0 67 47 114t114 47t114 -47t47 -114zM602 152q0 31 -21 53t-50 22q-30 0 -50.5 -21.5t-20.5 -53.5q0 -30 21 -52.5t50 -22.5q30 0 50.5 21.5t20.5 53.5z" />
    <glyph glyph-name="guilsinglleft" unicode="&#x2039;" horiz-adv-x="323" 
d="M154 229l159 -222h-143l-161 222l161 222h143z" />
    <glyph glyph-name="guilsinglright" unicode="&#x203a;" horiz-adv-x="323" 
d="M169 229l-159 222h143l161 -222l-161 -222h-143z" />
    <glyph glyph-name="fraction" unicode="&#x2044;" horiz-adv-x="219" 
d="M395 691l-478 -718h-94l479 718h93z" />
    <glyph glyph-name="Euro" unicode="&#x20ac;" horiz-adv-x="627" 
d="M100 228h-84l16 82h57q-1 31 1 64h-74l16 82h71q8 30 20.5 58.5t36.5 61.5t55.5 57.5t80.5 41t107 16.5q67 0 166 -21l-21 -127q-80 20 -135 20q-114 0 -154 -107h267l-16 -82h-270q-2 -28 0 -64h262l-16 -82h-230q24 -59 57 -84t85 -25q57 0 159 47v-131
q-101 -44 -181 -44q-63 0 -113.5 21t-82 57.5t-51 75.5t-29.5 83z" />
    <glyph glyph-name="afii61289" unicode="&#x2113;" horiz-adv-x="513" 
d="M441 189l54 -56q-72 -139 -210 -139q-82 0 -126 42.5t-54 111.5v10l-25 -18.5l-25 -18.5l-33 70q8 7 37 30t44 36v237q0 124 50.5 187.5t130.5 63.5q70 0 106 -49t36 -126q0 -150 -193 -332v-41q1 -45 24.5 -70.5t59.5 -25.5q68 0 124 88zM233 499v-140q108 123 108 216
q0 75 -50 75q-58 0 -58 -151z" />
    <glyph glyph-name="trademark" unicode="&#x2122;" horiz-adv-x="1000" 
d="M229 316v330h-123v70h324v-70h-120v-330h-81zM478 316v400h127l72 -276h2l72 276h127v-400h-77v319h-2l-85 -319h-73l-84 319h-2v-319h-77z" />
    <glyph glyph-name="Omega" unicode="&#x2126;" horiz-adv-x="698" 
d="M167 108v3q-118 106 -118 265q0 128 84.5 218.5t217.5 90.5q136 0 216 -93.5t80 -209.5q0 -85 -34.5 -155.5t-85.5 -115.5v-3h133v-108h-266v80q51 32 83.5 100t32.5 174q0 93 -42.5 156.5t-117.5 63.5q-74 0 -119.5 -63t-45.5 -163q0 -97 33.5 -168.5t82.5 -99.5v-80
h-266v108h132z" />
    <glyph glyph-name="estimated" unicode="&#x212e;" horiz-adv-x="844" 
d="M810 331h-629q-5 0 -5 -4v-190q0 -12 8 -22q101 -104 238 -104q148 0 251 116h55q-53 -62 -134 -98.5t-173 -36.5q-161 0 -274.5 102t-113.5 247t113.5 247t274.5 102t275 -102t114 -247v-10zM667 356v192q0 13 -9 22q-102 100 -236 100q-136 0 -237 -103q-9 -9 -9 -24
v-187q0 -6 5 -6h482q4 0 4 6z" />
    <glyph glyph-name="partialdiff" unicode="&#x2202;" horiz-adv-x="571" 
d="M101 610l-37 99q76 56 184 56q117 0 196.5 -97.5t79.5 -271.5q0 -183 -75 -292t-206 -109q-98 0 -153 72t-55 159q0 114 61 184t153 70q52 0 89.5 -25t52.5 -51h1q1 7 1 30q0 90 -45 155.5t-118 65.5q-70 0 -129 -45zM256 106h1q49 0 81.5 58t41.5 131q-7 27 -35.5 52.5
t-68.5 25.5q-47 0 -77.5 -45.5t-30.5 -106.5q0 -49 24.5 -82t63.5 -33z" />
    <glyph glyph-name="uni2206" unicode="&#x2206;" horiz-adv-x="648" 
d="M25 0v76l222 613h160l215 -611v-78h-597zM164 107h313l-101 269q-7 24 -27.5 87t-25.5 85h-3q-4 -18 -23 -75t-26 -82z" />
    <glyph glyph-name="product" unicode="&#x220f;" horiz-adv-x="712" 
d="M689 554h-99v-647h-133v647h-202v-647h-133v647h-99v120h666v-120z" />
    <glyph glyph-name="summation" unicode="&#x2211;" horiz-adv-x="550" 
d="M532 -93h-510v84l233 300l-224 291v92h485v-113h-305v-3l194 -246l-216 -279v-4h343v-122z" />
    <glyph glyph-name="minus" unicode="&#x2212;" horiz-adv-x="584" 
d="M42 289v128h500v-128h-500z" />
    <glyph glyph-name="uni2215" unicode="&#x2215;" horiz-adv-x="219" 
d="M395 691l-478 -718h-94l479 718h93z" />
    <glyph glyph-name="uni2219" unicode="&#x2219;" horiz-adv-x="271" 
d="M135 432q36 0 61.5 -25.5t25.5 -61.5t-25.5 -61.5t-61.5 -25.5t-61.5 25.5t-25.5 61.5t25.5 61.5t61.5 25.5z" />
    <glyph glyph-name="radical" unicode="&#x221a;" horiz-adv-x="586" 
d="M597 810l-222 -944h-106l-145 418l-72 -29l-22 73l173 71l99 -300l20 -85l1 -1l6.5 39t9.5 54l165 704h93z" />
    <glyph glyph-name="infinity" unicode="&#x221e;" horiz-adv-x="759" 
d="M712 279v-1q0 -77 -47 -124t-111 -47q-92 0 -174 109q-43 -53 -84 -81t-95 -28q-63 0 -109 47t-46 119q0 74 46.5 121.5t116.5 47.5q52 0 93.5 -27t81.5 -79q49 55 74 73q47 34 101 33q66 0 109.5 -45.5t43.5 -117.5zM210 178h1q25 0 50.5 15.5t40.5 31.5t39 45
q-22 30 -30 40t-27 29t-37 26t-40 7q-40 0 -64 -28t-24 -72q0 -39 26 -66.5t65 -27.5zM552 372h-1q-14 0 -28.5 -5.5t-24 -11t-23.5 -18.5t-19.5 -19t-19.5 -23t-16 -19q45 -56 73 -77t63 -21q37 0 60 30t23 64q0 44 -24 72t-63 28z" />
    <glyph glyph-name="integral" unicode="&#x222b;" horiz-adv-x="392" 
d="M371 825l-13 -91q-16 8 -35 8q-32 0 -49 -25q-26 -34 -26 -160q0 -77 7.5 -223t7.5 -236q0 -130 -34 -193q-38 -74 -131 -74q-48 0 -78 16l16 94q22 -10 42 -10q28 0 43 19q25 34 25 146q0 92 -7.5 242t-7.5 232q0 157 60 220q42 46 119 46q35 0 61 -11z" />
    <glyph glyph-name="approxequal" unicode="&#x2248;" horiz-adv-x="537" 
d="M453 442l47 -44q-54 -101 -134 -101q-46 0 -109 38q-52 32 -84 32q-20 0 -38 -11.5t-27.5 -23t-25.5 -34.5l-47 44q23 44 61.5 72t82.5 28q45 0 103 -35q3 -2 12.5 -7.5t11.5 -7t10 -5.5t10.5 -5.5t9 -4t10.5 -3t9.5 -1.5t10.5 -1q26 0 45.5 17.5t41.5 52.5zM453 257
l47 -44q-55 -101 -135 -101q-42 0 -108 39q-55 33 -83 33q-21 0 -39 -12t-27 -23t-26 -36l-47 44q23 44 61.5 72.5t82.5 28.5q42 0 102 -35q6 -3 21 -12t22 -12.5t18.5 -7t22.5 -3.5q26 0 45.5 16.5t42.5 52.5z" />
    <glyph glyph-name="notequal" unicode="&#x2260;" horiz-adv-x="537" 
d="M398 499l-37 -84h130v-77h-159l-56 -129h215v-76h-245l-48 -110l-60 24l38 86h-130v76h159l56 129h-215v77h244l47 108z" />
    <glyph glyph-name="lessequal" unicode="&#x2264;" horiz-adv-x="537" 
d="M488 97l-437 216v83l437 216v-88l-361 -168v-2l361 -169v-88zM492 -16h-444v78h444v-78z" />
    <glyph glyph-name="greaterequal" unicode="&#x2265;" horiz-adv-x="537" 
d="M53 612l437 -216v-83l-437 -216v88l361 169v2l-361 168v88zM490 -16h-442v78h442v-78z" />
    <glyph glyph-name="lozenge" unicode="&#x25ca;" horiz-adv-x="586" 
d="M538 337l-195 -385h-106l-189 385l194 385h107zM421 334l-108 223q-14 37 -18 58h-3q-9 -32 -19 -58l-108 -218l109 -227q12 -39 16 -55h4q13 44 17 53z" />
    <glyph glyph-name="fi" unicode="&#xfb01;" horiz-adv-x="594" 
d="M315 571q-53 0 -71 -24.5t-18 -85.5h93v-99h-93v-362h-145v362h-61v99h61q0 230 205 230q35 0 65 -9v-114q-21 3 -36 3zM460 691q32 0 55 -23t23 -55t-23 -55.5t-55 -23.5t-55.5 23.5t-23.5 55.5t23.5 55t55.5 23zM532 461v-461h-145v461h145z" />
    <glyph glyph-name="fl" unicode="&#xfb02;" horiz-adv-x="594" 
d="M532 682v-682h-145v682h145zM319 461v-99h-93v-362h-145v362h-60v99h60q0 112 48.5 171t156.5 59q35 0 65 -9v-114q-21 3 -36 3q-53 0 -71 -24.5t-18 -85.5h93z" />
    <glyph glyph-name="one.superior" 
d="M219 691v-359h-104v359h104z" />
    <glyph glyph-name="two.superior" 
d="M311 408v-76h-278v13q85 95 120.5 145t35.5 85q0 20 -13.5 33.5t-34.5 13.5q-43 0 -103 -51v85q65 35 118 35q62 0 98 -27t36 -74q0 -35 -25.5 -77t-80.5 -105h127z" />
    <glyph glyph-name="three.superior" 
d="M118 482v67q55 5 55 40q0 17 -14.5 27.5t-37.5 10.5q-33 0 -79 -22v69q44 17 98 17q59 0 97 -24.5t38 -63.5q0 -51 -57 -81q68 -27 68 -89q0 -47 -42 -76.5t-109 -29.5q-43 0 -103 24v76q52 -32 93 -32q25 0 40 11t15 30q0 41 -62 46z" />
    <glyph glyph-name="a.superior" horiz-adv-x="354" 
d="M353 486v-57q-49 -27 -93 -27q-45 0 -56 27q-47 -27 -94 -27q-38 0 -63 21.5t-25 53.5q0 15 5 27t17.5 22t22.5 17t31 14.5t32 11t36 10t32 8.5q0 22 -10.5 31.5t-34.5 9.5q-62 0 -115 -54v82q61 35 134 35q52 0 91.5 -19t39.5 -67v-119q0 -18 9 -18q12 0 41 18zM198 477
v59q-42 -14 -56 -24t-14 -26q0 -11 7 -18.5t18 -7.5q23 0 45 17z" />
    <glyph glyph-name="o.superior" horiz-adv-x="396" 
d="M371 548q0 -65 -48 -105.5t-124 -40.5t-124.5 40.5t-48.5 102.5q0 63 49.5 104.5t123.5 41.5q75 0 123.5 -41t48.5 -102zM259 551q0 81 -62 81q-59 0 -59 -88q0 -83 62 -83q59 0 59 90z" />
    </font>
</defs>
</svg>
